{"glyphs":{"0":{"ha":733,"x_min":76,"x_max":657,"o":"m 657 478 q 600 151 657 279 q 367 -14 525 -14 q 135 151 208 -14 q 76 478 76 279 q 135 804 76 676 q 367 969 208 969 q 600 804 525 969 q 657 478 657 676 m 539 479 q 367 894 539 894 q 194 479 194 894 q 367 69 194 69 q 539 479 539 69 z "},"1":{"ha":733,"x_min":118,"x_max":501,"o":"m 501 0 l 376 0 l 376 803 q 132 735 290 749 l 118 808 q 417 956 342 838 l 501 956 l 501 0 z "},"2":{"ha":733,"x_min":56,"x_max":625,"o":"m 625 0 l 56 0 l 393 479 q 483 706 483 607 q 286 878 483 878 q 115 839 193 878 l 83 918 q 324 969 182 969 q 535 899 456 969 q 614 717 614 829 q 493 446 614 608 l 238 101 l 625 101 l 625 0 z "},"3":{"ha":733,"x_min":63,"x_max":625,"o":"m 625 276 q 535 66 625 146 q 306 -14 444 -14 q 63 36 151 -14 l 97 119 q 283 78 168 78 q 436 131 379 78 q 493 276 493 183 q 394 447 493 397 q 219 479 324 483 l 219 549 q 395 608 329 557 q 461 739 461 658 q 297 881 461 881 q 118 843 188 881 l 86 919 q 315 969 175 969 q 506 914 431 969 q 585 753 585 853 q 518 603 585 667 q 407 536 471 558 l 407 533 q 625 276 625 475 z "},"4":{"ha":733,"x_min":76,"x_max":657,"o":"m 657 218 l 579 218 l 579 0 l 467 0 l 467 218 l 76 218 l 76 297 l 463 956 l 579 956 l 579 290 l 657 290 l 657 218 m 469 831 l 467 831 q 396 697 453 801 l 161 290 l 467 290 l 467 692 q 469 831 467 761 z "},"5":{"ha":733,"x_min":76,"x_max":636,"o":"m 636 276 q 547 72 636 156 q 315 -14 454 -14 q 76 36 165 -14 l 108 119 q 297 76 189 76 q 439 126 379 76 q 506 275 506 182 q 247 492 506 492 q 124 481 192 492 l 164 956 l 610 956 l 610 854 l 251 854 l 229 561 q 307 565 269 565 q 554 483 468 565 q 636 276 636 407 z "},"6":{"ha":733,"x_min":81,"x_max":658,"o":"m 658 279 q 586 75 658 157 q 372 -14 508 -14 q 153 86 229 -14 q 81 347 81 181 q 267 806 81 626 q 544 964 392 926 l 576 882 q 222 546 311 794 q 354 571 286 571 q 569 500 488 571 q 658 279 658 422 m 542 285 q 333 503 542 503 q 207 478 260 503 q 194 344 194 415 q 375 69 194 69 q 503 136 458 69 q 542 285 542 194 z "},"7":{"ha":733,"x_min":89,"x_max":681,"o":"m 681 956 l 553 657 q 311 0 374 239 l 158 0 l 532 854 l 89 854 l 89 956 l 681 956 z "},"8":{"ha":733,"x_min":76,"x_max":657,"o":"m 657 226 q 575 53 657 121 q 367 -14 493 -14 q 164 47 246 -14 q 76 225 76 114 q 124 369 76 307 q 286 499 172 432 q 148 611 189 556 q 107 742 107 667 q 182 906 107 842 q 367 969 257 969 q 551 906 475 969 q 626 743 626 842 q 585 614 626 669 q 447 503 544 558 q 609 372 561 436 q 657 226 657 307 m 525 743 q 481 853 525 810 q 368 896 438 896 q 256 853 299 896 q 213 744 213 811 q 246 640 213 681 q 369 544 279 599 q 492 638 458 594 q 525 743 525 681 m 543 226 q 510 343 543 296 q 364 457 471 394 q 219 344 258 396 q 186 229 186 299 q 240 111 186 157 q 365 67 290 67 q 493 112 443 67 q 543 226 543 157 z "},"9":{"ha":733,"x_min":75,"x_max":653,"o":"m 653 603 q 467 144 653 324 q 189 -14 342 24 l 157 67 q 511 404 424 157 q 379 379 447 379 q 165 450 246 379 q 75 669 75 528 q 147 875 75 793 q 363 964 226 964 q 579 867 506 964 q 653 603 653 771 m 538 608 q 358 885 538 885 q 229 817 274 885 q 190 668 190 758 q 399 450 190 450 q 526 475 471 450 q 538 608 538 532 z "}," ":{"ha":383,"x_min":0,"x_max":0,"o":""},"!":{"ha":403,"x_min":138,"x_max":297,"o":"m 289 956 l 263 314 l 171 314 l 144 956 l 289 956 m 297 74 q 274 17 297 40 q 217 -7 250 -7 q 161 17 185 -7 q 138 74 138 40 q 161 129 138 106 q 217 153 185 153 q 274 129 250 153 q 297 74 297 106 z "},"\"":{"ha":533,"x_min":96,"x_max":438,"o":"m 438 939 l 410 592 l 346 592 l 318 939 q 378 968 342 968 q 438 939 417 968 m 214 939 l 186 592 l 124 592 l 96 939 q 156 968 117 968 q 214 939 193 968 z "},"#":{"ha":733,"x_min":39,"x_max":694,"o":"m 694 599 l 539 599 l 499 382 l 644 382 l 644 318 l 488 318 l 433 0 l 361 0 l 417 318 l 254 318 l 196 0 l 125 0 l 182 318 l 39 318 l 39 382 l 193 382 l 232 599 l 89 599 l 89 661 l 243 661 l 294 956 l 367 956 l 315 661 l 478 661 l 529 956 l 601 956 l 550 661 l 694 661 l 694 599 m 467 599 l 303 599 l 264 382 l 426 382 l 467 599 z "},"$":{"ha":733,"x_min":108,"x_max":613,"o":"m 613 269 q 546 83 613 158 q 369 -8 479 7 l 382 -178 l 301 -178 l 314 -11 q 108 40 183 -10 l 140 125 q 306 79 213 79 q 438 130 388 79 q 488 263 488 181 q 448 371 488 328 q 318 449 408 414 q 117 701 117 525 q 180 878 117 803 q 350 965 243 953 l 338 1125 l 415 1125 l 403 967 q 576 917 508 963 l 547 843 q 397 885 481 885 q 279 838 322 885 q 236 715 236 792 q 283 599 236 643 q 397 536 318 567 q 613 269 613 451 z "},"%":{"ha":1186,"x_min":96,"x_max":1090,"o":"m 1090 313 q 903 -15 1090 -15 q 717 313 715 -15 q 903 638 718 638 q 1090 313 1090 638 m 786 947 l 461 -11 l 397 8 l 722 965 l 786 947 m 469 644 q 283 318 469 318 q 96 644 96 318 q 283 971 96 971 q 469 644 469 971 m 1007 314 q 903 583 1008 583 q 800 314 799 583 q 903 49 801 49 q 1007 314 1006 49 m 386 646 q 283 917 388 917 q 179 646 179 917 q 283 381 179 381 q 386 646 385 381 z "},"&":{"ha":860,"x_min":74,"x_max":836,"o":"m 836 625 q 682 569 760 589 l 682 40 q 426 -14 600 -14 q 169 59 265 -14 q 74 260 74 132 q 140 435 74 363 q 322 542 207 507 l 322 544 q 135 754 135 596 q 206 909 135 849 q 394 969 276 969 q 590 919 511 969 l 556 849 q 418 886 489 886 q 257 747 257 886 q 311 635 257 678 q 439 594 361 594 q 801 703 596 594 l 836 625 m 563 88 l 563 543 q 292 440 369 497 q 206 267 206 378 q 263 119 206 172 q 432 67 321 67 q 563 88 519 67 z "},"'":{"ha":311,"x_min":96,"x_max":215,"o":"m 215 939 l 186 592 l 124 592 l 96 939 q 156 968 117 968 q 215 939 194 968 z "},"(":{"ha":504,"x_min":94,"x_max":457,"o":"m 457 -278 l 397 -314 q 94 397 94 57 q 167 744 94 574 q 397 1107 240 914 l 457 1071 q 226 397 226 749 q 457 -278 226 47 z "},")":{"ha":504,"x_min":47,"x_max":410,"o":"m 410 397 q 107 -314 410 57 l 47 -278 q 278 397 278 47 q 47 1071 278 749 l 107 1107 q 337 744 264 914 q 410 397 410 574 z "},"*":{"ha":586,"x_min":72,"x_max":514,"o":"m 514 936 q 497 894 514 911 q 456 878 479 878 q 414 894 431 878 q 397 936 397 911 q 415 978 397 961 q 456 994 432 994 q 497 978 479 994 q 514 936 514 961 m 351 1053 q 334 1012 351 1029 q 293 994 317 994 q 252 1012 269 994 q 235 1053 235 1029 q 252 1095 235 1078 q 293 1113 269 1113 q 334 1095 317 1113 q 351 1053 351 1078 m 343 883 q 328 848 343 863 q 293 833 314 833 q 258 848 272 833 q 243 883 243 863 q 258 920 243 906 q 293 935 272 935 q 328 920 314 935 q 343 883 343 906 m 458 749 q 441 707 458 724 q 400 690 424 690 q 359 707 376 690 q 342 749 342 724 q 359 790 342 774 q 400 807 376 807 q 441 790 424 807 q 458 749 458 772 m 189 936 q 172 895 189 913 q 131 878 154 878 q 90 895 107 878 q 72 936 72 913 q 90 978 72 961 q 131 996 107 996 q 172 978 154 996 q 189 936 189 961 m 243 749 q 226 708 243 725 q 185 690 208 690 q 144 708 161 690 q 126 749 126 725 q 144 791 126 774 q 185 808 161 808 q 226 791 208 808 q 243 749 243 774 z "},"+":{"ha":733,"x_min":100,"x_max":633,"o":"m 633 422 l 408 422 l 408 179 l 324 179 l 324 422 l 100 422 l 100 506 l 324 506 l 324 749 l 408 749 l 408 506 l 633 506 l 633 422 z "},",":{"ha":364,"x_min":17,"x_max":269,"o":"m 269 108 l 89 -235 l 17 -235 l 135 108 q 217 143 165 143 q 269 108 264 143 z "},"-":{"ha":478,"x_min":82,"x_max":396,"o":"m 396 419 l 82 419 l 82 517 l 396 517 l 396 419 z "},"‐":{"ha":478,"x_min":82,"x_max":396,"o":"m 396 419 l 82 419 l 82 517 l 396 517 l 396 419 z "},".":{"ha":347,"x_min":93,"x_max":253,"o":"m 253 75 q 230 18 253 42 q 174 -6 207 -6 q 117 18 140 -6 q 93 75 93 42 q 117 131 93 108 q 174 154 140 154 q 230 131 207 154 q 253 75 253 108 z "},"/":{"ha":782,"x_min":22,"x_max":760,"o":"m 760 1067 l 101 -315 l 22 -276 l 681 1106 l 760 1067 z "},":":{"ha":347,"x_min":93,"x_max":253,"o":"m 253 501 q 230 445 253 468 q 174 422 207 422 q 117 445 140 422 q 93 501 93 468 q 117 558 93 535 q 174 582 140 582 q 230 558 207 582 q 253 501 253 535 m 253 75 q 230 18 253 42 q 174 -6 207 -6 q 117 18 140 -6 q 93 75 93 42 q 117 131 93 108 q 174 154 140 154 q 230 131 207 154 q 253 75 253 108 z "},";":{"ha":364,"x_min":17,"x_max":269,"o":"m 269 501 q 246 445 269 468 q 189 422 222 422 q 133 445 157 422 q 110 501 110 468 q 133 558 110 535 q 189 582 157 582 q 246 558 222 582 q 269 501 269 535 m 269 108 l 89 -235 l 17 -235 l 135 108 q 215 146 167 146 q 269 108 264 146 z "},"<":{"ha":733,"x_min":100,"x_max":633,"o":"m 633 194 l 100 428 l 100 508 l 633 743 l 633 651 l 200 468 l 633 285 l 633 194 z "},"=":{"ha":733,"x_min":100,"x_max":633,"o":"m 633 544 l 100 544 l 100 628 l 633 628 l 633 544 m 633 299 l 100 299 l 100 382 l 633 382 l 633 299 z "},">":{"ha":733,"x_min":100,"x_max":633,"o":"m 633 428 l 100 194 l 100 285 l 533 468 l 100 651 l 100 743 l 633 508 l 633 428 z "},"?":{"ha":547,"x_min":58,"x_max":528,"o":"m 528 742 q 457 590 528 657 q 328 517 400 538 l 313 314 l 221 314 l 201 554 q 333 613 279 572 q 400 735 400 664 q 361 838 400 800 q 238 879 318 879 q 93 843 160 879 l 58 915 q 258 967 143 967 q 455 906 382 967 q 528 742 528 844 m 347 74 q 324 17 347 40 q 267 -7 300 -7 q 211 17 235 -7 q 188 74 188 40 q 211 131 188 107 q 267 154 235 154 q 324 131 300 154 q 347 74 347 107 z "},"@":{"ha":1208,"x_min":92,"x_max":1115,"o":"m 1115 574 q 1038 265 1115 414 q 810 90 946 90 q 711 218 717 90 q 496 92 633 92 q 372 157 415 92 q 332 308 332 217 q 404 553 332 436 q 610 688 488 688 q 771 557 728 688 l 792 664 l 861 664 l 814 444 q 779 238 779 283 q 792 166 779 186 q 836 146 804 146 q 990 297 919 146 q 1057 574 1057 439 q 961 828 1057 733 q 710 924 865 924 q 310 733 474 924 q 151 307 151 551 q 278 -25 151 93 q 607 -139 400 -139 q 868 -86 757 -139 q 1064 65 965 -40 l 1094 29 q 886 -132 996 -82 q 607 -187 768 -187 q 233 -60 371 -187 q 92 308 92 72 q 274 774 92 576 q 714 971 457 971 q 1004 864 893 971 q 1115 574 1115 757 m 743 465 q 706 590 744 544 q 618 632 671 632 q 460 513 521 632 q 408 311 408 414 q 438 199 408 243 q 531 149 471 149 q 689 265 626 149 q 743 465 740 363 z "},"A":{"ha":813,"x_min":26,"x_max":786,"o":"m 786 0 l 654 0 l 564 286 l 236 286 l 143 0 l 26 0 l 350 956 l 464 956 l 786 0 m 543 363 l 432 725 q 404 840 408 800 l 401 840 q 372 725 393 801 l 258 363 l 543 363 z "},"B":{"ha":781,"x_min":107,"x_max":714,"o":"m 714 258 q 615 50 714 121 q 368 -14 525 -14 q 107 39 204 -14 l 107 917 q 356 969 199 969 q 596 903 508 969 q 678 731 678 838 q 617 575 678 636 q 492 508 567 522 l 492 506 q 636 431 572 490 q 714 258 714 358 m 554 721 q 354 896 554 896 q 228 875 286 896 l 228 535 l 290 535 q 494 579 435 535 q 554 721 554 624 m 585 257 q 515 420 585 369 q 292 471 446 471 l 228 471 l 228 90 q 363 68 281 68 q 585 257 585 68 z "},"C":{"ha":664,"x_min":75,"x_max":621,"o":"m 621 39 q 433 -14 551 -14 q 168 131 267 -14 q 75 478 75 267 q 168 824 75 686 q 433 969 267 969 q 619 917 547 969 l 589 842 q 456 879 528 879 q 264 754 328 879 q 208 478 208 649 q 265 203 208 308 q 454 82 331 82 q 588 119 526 82 l 621 39 z "},"D":{"ha":826,"x_min":107,"x_max":751,"o":"m 751 488 q 657 126 751 257 q 360 -14 556 -14 q 107 38 194 -14 l 107 917 q 354 969 203 969 q 651 839 549 969 q 751 488 751 714 m 619 489 q 351 888 619 888 q 233 868 281 888 l 233 94 q 353 76 279 76 q 558 182 494 76 q 619 489 619 281 z "},"E":{"ha":614,"x_min":107,"x_max":550,"o":"m 550 0 l 107 0 l 107 956 l 550 956 l 550 869 l 235 869 l 235 536 l 518 536 l 518 451 l 235 451 l 235 86 l 550 86 l 550 0 z "},"F":{"ha":603,"x_min":107,"x_max":549,"o":"m 549 869 l 235 869 l 235 536 l 517 536 l 517 451 l 235 451 l 235 0 l 107 0 l 107 956 l 549 956 l 549 869 z "},"G":{"ha":817,"x_min":75,"x_max":718,"o":"m 718 39 q 476 -14 626 -14 q 193 108 300 -14 q 75 485 75 242 q 194 846 75 714 q 476 969 304 969 q 700 919 621 969 l 663 840 q 490 879 599 879 q 207 474 207 879 q 285 176 207 285 q 475 75 358 75 q 594 97 556 75 l 594 456 l 432 456 l 432 536 l 718 536 l 718 39 z "},"H":{"ha":829,"x_min":107,"x_max":722,"o":"m 722 0 l 594 0 l 594 451 l 235 451 l 235 0 l 107 0 l 107 956 l 235 956 l 235 536 l 594 536 l 594 956 l 722 956 l 722 0 z "},"I":{"ha":351,"x_min":111,"x_max":239,"o":"m 239 0 l 111 0 l 111 956 l 239 956 l 239 0 z "},"J":{"ha":351,"x_min":-61,"x_max":239,"o":"m 239 39 q 149 -203 239 -108 q -61 -306 67 -287 l -61 -215 q 60 -135 14 -196 q 111 32 111 -67 l 111 956 l 239 956 l 239 39 z "},"K":{"ha":721,"x_min":111,"x_max":696,"o":"m 696 0 l 551 0 l 240 494 l 238 494 l 238 0 l 111 0 l 111 956 l 238 956 l 238 513 l 240 513 l 547 956 l 681 956 l 354 511 l 696 0 z "},"L":{"ha":571,"x_min":111,"x_max":526,"o":"m 526 0 l 111 0 l 111 956 l 239 956 l 239 86 l 526 86 l 526 0 z "},"M":{"ha":1086,"x_min":74,"x_max":1013,"o":"m 1013 0 l 892 0 q 818 715 890 11 q 811 828 813 771 l 808 828 q 782 715 804 801 l 579 0 l 494 0 q 294 717 490 13 q 268 828 279 769 l 265 828 q 258 717 265 800 l 183 0 l 74 0 l 188 956 l 322 956 l 514 265 q 539 157 531 206 l 542 157 q 567 264 546 179 l 764 956 l 899 956 l 1013 0 z "},"N":{"ha":899,"x_min":107,"x_max":792,"o":"m 792 0 l 681 0 l 274 697 q 213 813 242 753 l 210 813 q 214 694 214 750 l 214 0 l 107 0 l 107 956 l 242 956 l 632 285 q 686 183 664 231 l 689 183 q 685 289 685 233 l 685 956 l 792 956 l 792 0 z "},"O":{"ha":840,"x_min":75,"x_max":765,"o":"m 765 478 q 686 129 765 257 q 421 -14 597 -14 q 154 129 244 -14 q 75 478 75 257 q 154 825 75 697 q 421 969 244 969 q 686 825 596 969 q 765 478 765 697 m 636 482 q 421 885 636 885 q 204 482 204 885 q 421 81 204 81 q 636 482 636 81 z "},"P":{"ha":729,"x_min":107,"x_max":672,"o":"m 672 681 q 594 476 672 554 q 340 390 507 390 q 275 393 310 390 l 232 397 l 232 0 l 107 0 l 107 917 q 346 969 199 969 q 593 888 508 969 q 672 681 672 813 m 549 682 q 340 893 549 893 q 232 875 274 893 l 232 475 l 274 471 q 326 468 301 468 q 549 682 549 468 z "},"Q":{"ha":840,"x_min":75,"x_max":765,"o":"m 765 479 q 583 29 765 151 l 749 -179 l 653 -264 l 508 1 q 421 -10 464 -10 q 154 133 244 -10 q 75 479 75 260 q 154 826 75 699 q 421 969 244 969 q 686 826 597 969 q 765 479 765 699 m 638 485 q 421 885 638 885 q 204 485 204 885 q 421 83 204 83 q 638 485 638 83 z "},"R":{"ha":753,"x_min":110,"x_max":697,"o":"m 697 0 l 553 0 l 239 446 l 236 446 l 236 0 l 110 0 l 110 918 q 347 969 203 969 q 592 895 508 969 q 675 686 675 821 q 597 496 675 565 q 385 424 518 426 l 385 421 l 697 0 m 549 681 q 344 894 549 894 q 236 874 274 894 l 236 474 q 318 465 264 465 q 549 681 549 465 z "},"S":{"ha":646,"x_min":60,"x_max":571,"o":"m 571 269 q 490 65 571 144 q 282 -14 408 -14 q 60 39 142 -14 l 93 128 q 260 83 165 83 q 390 132 342 83 q 439 263 439 181 q 401 368 439 326 q 272 446 363 410 q 69 701 69 526 q 144 892 69 814 q 339 969 218 969 q 535 918 461 969 l 504 838 q 353 882 433 882 q 236 837 278 882 q 194 714 194 792 q 242 603 194 646 q 354 539 276 569 q 571 269 571 454 z "},"T":{"ha":592,"x_min":42,"x_max":550,"o":"m 550 869 l 360 869 l 360 0 l 232 0 l 232 869 l 42 869 l 42 956 l 550 956 l 550 869 z "},"U":{"ha":810,"x_min":107,"x_max":703,"o":"m 703 272 q 622 68 703 147 q 404 -15 539 -15 q 189 67 271 -15 q 107 272 107 149 l 107 956 l 235 956 l 235 274 q 286 135 235 186 q 411 85 338 85 q 535 135 485 85 q 586 274 586 186 l 586 956 l 703 956 l 703 272 z "},"V":{"ha":735,"x_min":33,"x_max":706,"o":"m 706 956 l 428 0 l 317 0 l 33 956 l 169 956 l 346 283 q 374 158 360 228 l 376 158 q 406 283 383 192 l 585 956 l 706 956 z "},"W":{"ha":1135,"x_min":50,"x_max":1088,"o":"m 1088 956 l 864 0 l 751 0 l 590 667 q 569 774 578 719 l 567 774 q 549 667 560 729 l 386 0 l 274 0 l 50 956 l 182 956 l 319 265 q 336 156 329 214 l 339 156 q 360 265 343 182 l 525 956 l 622 956 l 786 265 q 806 156 797 218 l 808 156 q 825 265 811 185 l 969 956 l 1088 956 z "},"X":{"ha":721,"x_min":33,"x_max":689,"o":"m 689 0 l 544 0 l 358 396 l 356 396 l 163 0 l 33 0 l 293 492 l 61 956 l 200 956 l 361 594 l 364 594 l 546 956 l 665 956 l 428 507 l 689 0 z "},"Y":{"ha":694,"x_min":24,"x_max":674,"o":"m 674 956 l 411 424 l 411 0 l 283 0 l 283 424 l 24 956 l 161 956 l 351 524 l 354 524 l 551 956 l 674 956 z "},"Z":{"ha":601,"x_min":33,"x_max":556,"o":"m 556 0 l 33 0 l 385 869 l 56 869 l 56 956 l 546 956 l 199 86 l 556 86 l 556 0 z "},"[":{"ha":476,"x_min":108,"x_max":408,"o":"m 408 -299 l 108 -299 l 108 1090 l 407 1090 l 407 1018 l 218 1018 l 218 -225 l 408 -225 l 408 -299 z "},"\\":{"ha":789,"x_min":22,"x_max":767,"o":"m 767 -275 l 685 -315 l 22 1065 l 104 1107 l 767 -275 z "},"]":{"ha":476,"x_min":68,"x_max":368,"o":"m 368 -299 l 68 -299 l 68 -225 l 257 -225 l 257 1018 l 68 1018 l 68 1090 l 368 1090 l 368 -299 z "},"^":{"ha":803,"x_min":132,"x_max":671,"o":"m 671 665 l 626 619 l 401 875 l 176 619 l 132 665 l 336 932 q 401 967 363 967 q 467 932 440 967 l 671 665 z "},"_":{"ha":733,"x_min":-14,"x_max":747,"o":"m 747 -274 l -14 -274 l -14 -194 l 747 -194 l 747 -274 z "},"`":{"ha":272,"x_min":-11,"x_max":217,"o":"m 217 831 l 147 831 l -11 1019 q 40 1044 -3 1044 q 119 1021 82 1044 l 217 831 z "},"a":{"ha":693,"x_min":61,"x_max":594,"o":"m 594 39 q 346 -14 500 -14 q 61 207 61 -14 q 183 413 61 344 q 479 488 281 467 l 479 533 q 314 682 479 682 q 133 635 228 682 l 104 707 q 333 763 206 763 q 594 519 594 763 l 594 39 m 479 82 l 479 425 q 258 365 322 406 q 178 210 178 315 q 356 57 178 57 q 479 82 433 57 z "},"b":{"ha":732,"x_min":99,"x_max":663,"o":"m 663 388 q 576 97 663 203 q 322 -14 486 -14 q 99 39 179 -14 l 99 1090 l 219 1090 l 219 724 q 372 758 286 758 q 583 657 503 758 q 663 388 663 556 m 540 383 q 494 596 540 517 q 342 686 442 686 q 219 657 272 686 l 219 83 q 325 65 256 65 q 540 383 540 65 z "},"c":{"ha":571,"x_min":69,"x_max":522,"o":"m 522 36 q 354 -14 467 -14 q 149 92 229 -14 q 69 375 69 197 q 151 661 69 556 q 357 763 229 763 q 522 713 465 763 l 493 642 q 382 678 444 678 q 193 379 193 678 q 240 161 193 242 q 378 76 289 76 q 492 113 440 76 l 522 36 z "},"d":{"ha":732,"x_min":69,"x_max":633,"o":"m 633 39 q 399 -14 547 -14 q 156 88 242 -14 q 69 363 69 189 q 160 653 69 546 q 394 756 247 756 q 513 739 453 756 l 513 1090 l 633 1090 l 633 39 m 513 88 l 513 671 q 419 685 461 685 q 240 589 299 685 q 190 372 190 510 q 404 67 190 67 q 513 88 481 67 z "},"e":{"ha":725,"x_min":69,"x_max":660,"o":"m 656 396 l 185 328 q 413 75 206 75 q 597 118 522 75 l 629 38 q 403 -14 544 -14 q 163 82 250 -14 q 69 376 69 183 q 154 665 69 563 q 371 763 235 763 q 656 396 660 763 m 539 447 q 367 683 539 683 q 232 614 281 683 q 181 393 179 539 l 539 447 z "},"f":{"ha":431,"x_min":54,"x_max":393,"o":"m 393 672 l 263 672 l 263 0 l 140 0 l 140 672 l 54 672 l 54 749 l 140 749 l 140 854 q 206 1031 140 967 q 393 1090 272 1096 l 393 1013 q 263 868 263 1006 l 263 749 l 393 749 l 393 672 z "},"g":{"ha":731,"x_min":69,"x_max":632,"o":"m 632 -15 q 556 -235 632 -157 q 344 -314 479 -314 q 113 -262 197 -314 l 150 -181 q 324 -225 228 -225 q 514 -29 514 -225 l 514 24 q 364 -8 460 -8 q 149 91 229 -8 q 69 361 69 190 q 158 653 69 544 q 410 763 246 763 q 632 710 550 763 l 632 -15 m 514 94 l 514 668 q 407 689 476 689 q 190 365 190 689 q 396 64 190 64 q 514 94 464 64 z "},"h":{"ha":740,"x_min":99,"x_max":642,"o":"m 642 0 l 519 0 l 519 531 q 367 678 519 678 q 221 640 283 678 l 221 0 l 99 0 l 99 1090 l 221 1090 l 221 710 q 393 756 311 756 q 589 685 524 756 q 642 535 642 626 l 642 0 z "},"i":{"ha":335,"x_min":96,"x_max":239,"o":"m 239 960 q 218 913 239 932 q 168 893 197 893 q 117 913 138 893 q 96 960 96 932 q 117 1008 96 988 q 168 1028 138 1028 q 218 1008 197 1028 q 239 960 239 988 m 229 0 l 107 0 l 107 749 l 229 749 l 229 0 z "},"j":{"ha":339,"x_min":-28,"x_max":243,"o":"m 243 960 q 222 913 243 932 q 171 893 201 893 q 120 913 142 893 q 99 960 99 933 q 119 1008 99 988 q 171 1028 140 1028 q 222 1008 201 1028 q 243 960 243 988 m 232 43 q 153 -208 232 -110 q -28 -308 79 -296 l -28 -228 q 110 35 110 -178 l 110 749 l 232 749 l 232 43 z "},"k":{"ha":661,"x_min":106,"x_max":653,"o":"m 653 0 l 514 0 l 228 386 l 225 386 l 225 0 l 106 0 l 106 1090 l 225 1090 l 225 401 l 228 401 l 494 749 l 622 749 l 339 399 l 653 0 z "},"l":{"ha":338,"x_min":107,"x_max":229,"o":"m 229 0 l 107 0 l 107 1090 l 229 1090 l 229 0 z "},"m":{"ha":1161,"x_min":99,"x_max":1063,"o":"m 1063 0 l 940 0 l 940 539 q 796 682 940 682 q 642 615 704 682 l 642 0 l 519 0 l 519 544 q 477 646 519 608 q 356 683 435 683 q 221 658 282 683 l 221 0 l 99 0 l 99 710 q 358 763 207 763 q 588 672 515 763 q 819 763 674 763 q 1008 692 943 763 q 1063 542 1063 632 l 1063 0 z "},"n":{"ha":740,"x_min":99,"x_max":642,"o":"m 642 0 l 519 0 l 519 538 q 363 683 519 683 q 221 657 282 683 l 221 0 l 99 0 l 99 710 q 372 763 208 763 q 585 692 515 763 q 642 540 642 633 l 642 0 z "},"o":{"ha":724,"x_min":69,"x_max":654,"o":"m 654 374 q 585 97 654 200 q 363 -14 508 -14 q 139 97 217 -14 q 69 374 69 200 q 140 651 69 550 q 361 763 217 763 q 585 651 508 763 q 654 374 654 551 m 532 374 q 363 685 532 685 q 192 374 192 685 q 363 71 192 71 q 532 374 532 71 z "},"p":{"ha":732,"x_min":99,"x_max":663,"o":"m 663 386 q 574 95 663 201 q 336 -11 485 -11 q 219 7 271 -11 l 219 -299 l 99 -299 l 99 710 q 332 763 189 763 q 576 661 489 763 q 663 386 663 560 m 540 381 q 326 689 540 689 q 219 668 268 689 l 219 81 q 311 64 260 64 q 482 147 424 64 q 540 381 540 229 z "},"q":{"ha":732,"x_min":69,"x_max":633,"o":"m 633 -299 l 514 -299 l 514 24 q 363 -11 454 -11 q 149 89 228 -11 q 69 360 69 189 q 153 649 69 542 q 410 763 242 763 q 633 710 551 763 l 633 -299 m 514 94 l 514 668 q 407 689 476 689 q 190 365 190 689 q 394 64 190 64 q 514 94 461 64 z "},"r":{"ha":447,"x_min":99,"x_max":421,"o":"m 421 761 l 392 668 q 318 679 356 679 q 221 654 258 679 l 221 0 l 99 0 l 99 708 q 421 761 213 767 z "},"s":{"ha":561,"x_min":53,"x_max":496,"o":"m 496 208 q 428 56 496 119 q 244 -11 356 -11 q 53 40 121 -11 l 86 121 q 232 76 139 76 q 332 113 293 76 q 371 206 371 150 q 342 293 371 261 q 247 349 313 325 q 72 558 72 414 q 134 704 72 644 q 296 764 196 764 q 471 713 394 764 l 439 639 q 314 681 383 681 q 222 647 256 681 q 189 563 189 613 q 314 428 189 475 q 496 208 496 358 z "},"t":{"ha":446,"x_min":54,"x_max":393,"o":"m 393 4 q 326 -7 356 -7 q 182 53 232 -7 q 140 182 140 104 l 140 672 l 54 672 l 54 749 l 140 749 l 140 921 l 263 958 l 263 749 l 393 749 l 393 672 l 263 672 l 263 185 q 357 76 263 76 q 393 82 368 76 l 393 4 z "},"u":{"ha":726,"x_min":99,"x_max":628,"o":"m 628 44 q 364 -15 524 -15 q 99 229 99 -15 l 99 749 l 221 749 l 221 225 q 257 115 221 156 q 371 71 297 71 q 506 101 454 71 l 506 749 l 628 749 l 628 44 z "},"v":{"ha":678,"x_min":40,"x_max":642,"o":"m 642 749 l 399 0 l 289 0 l 40 749 l 171 749 l 328 213 q 347 121 342 165 l 350 121 q 368 213 351 142 l 528 749 l 642 749 z "},"w":{"ha":1071,"x_min":49,"x_max":1026,"o":"m 1026 749 l 813 0 l 707 0 l 556 535 q 540 622 543 578 l 539 622 q 521 535 536 601 l 367 0 l 261 0 l 49 749 l 174 749 l 304 211 q 319 122 317 160 l 322 122 q 340 211 328 156 l 492 749 l 597 749 l 744 211 q 761 122 756 171 l 764 122 q 779 213 765 146 l 915 749 l 1026 749 z "},"x":{"ha":656,"x_min":33,"x_max":622,"o":"m 622 0 l 488 0 l 326 304 l 324 304 l 160 0 l 33 0 l 265 388 l 58 749 l 186 749 l 332 475 l 335 475 l 483 749 l 599 749 l 390 397 l 622 0 z "},"y":{"ha":678,"x_min":40,"x_max":642,"o":"m 642 749 l 297 -299 l 165 -299 l 290 0 l 40 749 l 171 749 l 325 211 q 343 115 340 160 l 346 115 q 365 211 353 153 l 528 749 l 642 749 z "},"z":{"ha":579,"x_min":42,"x_max":524,"o":"m 524 0 l 42 0 l 357 672 l 65 672 l 65 749 l 513 749 l 204 76 l 524 76 l 524 0 z "},"{":{"ha":514,"x_min":72,"x_max":438,"o":"m 438 -179 q 179 33 179 -179 l 179 250 q 154 382 179 343 q 72 424 129 421 l 72 492 q 154 533 129 494 q 179 663 179 572 l 179 879 q 438 1090 179 1090 l 438 1024 q 288 882 288 1024 l 288 626 q 172 458 288 483 q 172 456 174 457 q 288 286 288 428 l 288 31 q 438 -111 288 -111 l 438 -179 z "},"|":{"ha":317,"x_min":108,"x_max":208,"o":"m 208 -299 l 108 -299 l 108 1090 l 208 1090 l 208 -299 z "},"}":{"ha":514,"x_min":76,"x_max":442,"o":"m 442 424 q 360 382 385 421 q 335 250 335 343 l 335 33 q 76 -179 335 -179 l 76 -111 q 228 31 228 -111 l 228 286 q 342 456 228 429 l 342 458 q 228 626 228 483 l 228 882 q 76 1024 228 1024 l 76 1090 q 335 879 335 1090 l 335 663 q 360 533 335 572 q 442 492 385 494 l 442 424 z "},"~":{"ha":803,"x_min":117,"x_max":686,"o":"m 686 490 q 543 379 656 394 q 406 422 490 372 q 271 465 322 472 q 160 372 196 456 l 117 443 q 254 557 161 547 q 397 513 315 564 q 528 469 479 463 q 639 563 606 481 l 686 490 z "},"¡":{"ha":403,"x_min":138,"x_max":297,"o":"m 297 583 q 274 527 297 550 q 217 504 250 504 q 161 527 185 504 q 138 583 138 550 q 161 640 138 617 q 217 664 185 664 q 274 640 250 664 q 297 583 297 617 m 289 -299 l 144 -299 l 171 343 l 263 343 l 289 -299 z "},"¢":{"ha":733,"x_min":122,"x_max":568,"o":"m 568 186 q 419 144 517 149 l 431 1 l 346 1 l 358 149 q 185 249 249 164 q 122 478 122 333 q 187 705 122 617 q 361 808 251 793 l 349 954 l 432 954 l 422 811 q 568 769 518 807 l 542 706 q 431 735 496 735 q 240 482 240 735 q 289 295 240 364 q 428 226 338 226 q 540 256 492 226 l 568 186 z "},"£":{"ha":733,"x_min":81,"x_max":663,"o":"m 663 0 l 96 0 q 232 329 232 163 q 214 458 232 386 l 81 458 l 81 531 l 194 531 q 163 718 163 638 q 240 897 163 825 q 444 969 317 969 q 647 921 575 969 l 615 843 q 464 881 547 881 q 282 685 282 881 q 306 531 282 615 l 494 531 l 494 458 l 319 458 q 332 332 332 404 q 304 193 332 271 q 261 101 282 131 l 663 101 l 663 0 z "},"¤":{"ha":733,"x_min":63,"x_max":671,"o":"m 671 218 l 622 169 l 522 269 q 367 217 454 217 q 211 269 279 217 l 111 169 l 63 218 l 163 318 q 110 474 110 386 q 163 629 110 561 l 63 729 l 111 778 l 211 678 q 367 731 279 731 q 522 678 454 731 l 622 778 l 671 729 l 571 629 q 624 474 624 561 q 571 318 624 386 l 671 218 m 544 474 q 492 599 544 547 q 367 651 440 651 q 241 599 293 651 q 189 474 189 547 q 241 347 189 400 q 367 294 293 294 q 492 347 440 294 q 544 474 544 400 z "},"¥":{"ha":733,"x_min":47,"x_max":686,"o":"m 686 956 l 518 611 l 668 621 l 668 558 l 499 571 l 429 431 l 668 440 l 668 376 l 426 390 l 426 0 l 308 0 l 308 390 l 64 376 l 64 440 l 306 431 l 236 571 l 64 558 l 64 621 l 217 611 l 47 956 l 176 956 l 369 513 l 372 513 l 572 956 l 686 956 z "},"¦":{"ha":317,"x_min":108,"x_max":208,"o":"m 208 542 l 108 542 l 108 1090 l 208 1090 l 208 542 m 208 -299 l 108 -299 l 108 250 l 208 250 l 208 -299 z "},"§":{"ha":733,"x_min":106,"x_max":629,"o":"m 629 301 q 464 69 629 168 q 561 -115 561 -17 q 497 -254 561 -199 q 335 -310 433 -310 q 151 -260 224 -310 l 185 -183 q 315 -226 240 -226 q 409 -197 371 -226 q 447 -118 447 -168 q 369 19 447 -46 l 226 140 q 106 375 106 242 q 268 613 106 510 q 186 785 186 690 q 244 913 186 860 q 393 965 303 965 q 565 918 499 965 l 535 850 q 410 888 479 888 q 325 860 357 888 q 293 783 293 833 q 388 631 293 711 l 500 535 q 601 422 572 474 q 629 301 629 369 m 526 286 q 510 376 526 340 q 440 461 492 418 l 319 564 q 201 392 201 493 q 294 214 201 293 l 407 118 q 526 286 526 193 z "},"¨":{"ha":272,"x_min":-42,"x_max":313,"o":"m 313 915 q 294 874 313 890 q 250 857 276 857 q 206 874 224 857 q 188 915 188 892 q 206 958 188 940 q 250 975 224 975 q 294 958 276 975 q 313 915 313 940 m 85 915 q 66 874 85 890 q 21 857 47 857 q -24 874 -6 857 q -42 915 -42 892 q -24 958 -42 940 q 21 975 -6 975 q 66 958 47 975 q 85 915 85 940 z "},"©":{"ha":1146,"x_min":82,"x_max":1064,"o":"m 1064 476 q 919 130 1064 274 q 572 -14 775 -14 q 226 130 369 -14 q 82 476 82 274 q 226 824 82 681 q 572 968 369 968 q 919 824 775 968 q 1064 476 1064 681 m 1004 476 q 878 781 1004 654 q 572 908 751 908 q 268 781 394 908 q 142 476 142 654 q 268 172 142 299 q 572 46 394 46 q 878 172 751 46 q 1004 476 1004 299 m 800 293 q 576 188 713 188 q 370 273 456 188 q 285 479 285 358 q 370 687 285 601 q 576 772 456 772 q 799 668 708 772 l 751 625 q 576 710 681 710 q 415 642 482 710 q 349 479 349 575 q 415 317 349 385 q 576 250 482 250 q 750 332 679 250 l 800 293 z "},"ª":{"ha":490,"x_min":60,"x_max":418,"o":"m 418 521 q 253 486 353 486 q 60 625 60 486 q 143 754 60 713 q 336 796 203 783 l 336 822 q 232 908 336 908 q 115 881 174 908 l 94 932 q 244 965 158 965 q 418 815 418 965 l 418 521 m 336 551 l 336 749 q 193 715 233 736 q 140 625 140 688 q 258 538 140 538 q 336 551 306 538 z "},"«":{"ha":714,"x_min":83,"x_max":614,"o":"m 614 204 l 549 161 l 339 464 l 549 767 l 614 724 l 436 464 l 614 204 m 358 204 l 293 161 l 83 464 l 293 767 l 358 724 l 181 464 l 358 204 z "},"¬":{"ha":733,"x_min":100,"x_max":633,"o":"m 633 203 l 546 203 l 546 425 l 100 425 l 100 508 l 633 508 l 633 203 z "},"®":{"ha":1146,"x_min":82,"x_max":1064,"o":"m 1064 476 q 919 130 1064 274 q 572 -14 775 -14 q 226 130 369 -14 q 82 476 82 274 q 226 824 82 681 q 572 968 369 968 q 919 824 775 968 q 1064 476 1064 681 m 1004 476 q 878 781 1004 654 q 572 908 751 908 q 268 781 394 908 q 142 476 142 654 q 268 172 142 299 q 572 46 394 46 q 878 172 751 46 q 1004 476 1004 299 m 774 193 l 696 193 l 506 461 l 485 461 l 485 193 l 419 193 l 419 760 q 556 788 475 788 q 690 747 638 788 q 749 624 749 701 q 701 510 749 551 q 576 465 653 469 l 774 193 m 682 625 q 547 733 682 733 q 485 722 511 733 l 485 507 l 536 507 q 682 625 682 507 z "},"°":{"ha":583,"x_min":83,"x_max":500,"o":"m 500 763 q 439 615 500 676 q 292 554 378 554 q 144 615 206 554 q 83 763 83 676 q 144 910 83 849 q 292 971 206 971 q 439 910 378 971 q 500 763 500 849 m 435 763 q 393 864 435 822 q 292 906 351 906 q 190 864 232 906 q 149 763 149 822 q 190 661 149 703 q 292 619 232 619 q 393 661 351 619 q 435 763 435 703 z "},"±":{"ha":733,"x_min":100,"x_max":633,"o":"m 633 506 l 408 506 l 408 265 l 324 265 l 324 506 l 100 506 l 100 586 l 324 586 l 324 824 l 408 824 l 408 586 l 633 586 l 633 506 m 633 99 l 100 99 l 100 179 l 633 179 l 633 99 z "},"²":{"ha":511,"x_min":67,"x_max":428,"o":"m 428 376 l 67 376 l 278 668 q 331 796 331 740 q 217 893 331 893 q 119 871 164 893 l 93 931 q 242 964 160 964 q 374 920 325 964 q 424 804 424 876 q 350 640 424 736 l 204 451 l 428 451 l 428 376 z "},"³":{"ha":511,"x_min":74,"x_max":424,"o":"m 424 546 q 367 416 424 465 q 226 367 311 367 q 74 401 135 367 l 99 464 q 213 438 149 438 q 331 546 331 438 q 168 660 331 667 l 168 715 q 311 819 311 726 q 218 899 311 899 q 118 875 165 899 l 93 932 q 233 965 154 965 q 352 929 304 965 q 400 829 400 893 q 306 701 400 746 q 424 546 424 661 z "},"´":{"ha":272,"x_min":56,"x_max":283,"o":"m 283 1019 l 125 831 l 56 831 l 153 1021 q 233 1044 190 1044 q 283 1019 275 1044 z "},"¶":{"ha":733,"x_min":39,"x_max":675,"o":"m 675 893 l 632 893 l 632 -299 l 544 -299 l 544 893 l 357 893 l 357 -299 l 269 -299 l 269 451 q 101 530 164 463 q 39 699 39 597 q 132 897 39 829 q 346 956 213 956 l 675 956 l 675 893 z "},"¸":{"ha":272,"x_min":-42,"x_max":314,"o":"m 314 -172 q 67 -276 314 -276 q -42 -272 17 -276 l -14 -225 q 57 -228 22 -228 q 222 -174 222 -228 q 111 -126 222 -126 q 46 -129 83 -126 l 74 -86 q 147 -82 114 -82 q 314 -172 314 -82 z "},"¹":{"ha":511,"x_min":103,"x_max":347,"o":"m 347 376 l 258 376 l 258 843 q 111 817 201 824 l 103 865 q 286 956 238 882 l 347 956 l 347 376 z "},"º":{"ha":490,"x_min":49,"x_max":442,"o":"m 442 728 q 394 557 442 621 q 246 488 343 488 q 96 557 147 488 q 49 728 49 621 q 96 899 49 836 q 244 968 147 968 q 396 899 344 968 q 442 728 442 836 m 354 728 q 246 914 354 914 q 136 729 136 914 q 246 549 136 549 q 354 728 354 549 z "},"»":{"ha":714,"x_min":100,"x_max":631,"o":"m 631 464 l 422 161 l 357 204 l 533 464 l 357 724 l 422 767 l 631 464 m 376 464 l 167 161 l 100 204 l 278 464 l 100 724 l 167 767 l 376 464 z "},"¼":{"ha":1110,"x_min":67,"x_max":1004,"o":"m 1004 129 l 957 129 l 957 0 l 874 0 l 874 129 l 639 129 l 639 186 l 875 581 l 957 581 l 957 186 l 1004 186 l 1004 129 m 810 944 l 350 -21 l 276 11 l 736 975 l 810 944 m 313 376 l 224 376 l 224 843 q 75 817 169 824 l 67 865 q 251 956 204 885 l 313 956 l 313 376 m 875 485 l 872 485 q 836 413 865 467 l 703 186 l 874 186 l 874 413 q 875 485 874 446 z "},"½":{"ha":1110,"x_min":67,"x_max":1004,"o":"m 1004 0 l 646 0 l 857 288 q 908 419 908 357 q 794 519 908 519 q 703 494 747 519 l 678 554 q 819 589 739 589 q 952 543 903 589 q 1001 426 1001 497 q 929 260 1001 350 l 782 75 l 1004 75 l 1004 0 m 788 944 l 328 -21 l 254 11 l 714 975 l 788 944 m 313 376 l 224 376 l 224 843 q 75 817 169 824 l 67 865 q 251 956 204 885 l 313 956 l 313 376 z "},"¾":{"ha":1110,"x_min":74,"x_max":1011,"o":"m 1011 129 l 964 129 l 964 0 l 881 0 l 881 129 l 646 129 l 646 186 l 882 581 l 964 581 l 964 186 l 1011 186 l 1011 129 m 854 944 l 393 -21 l 319 11 l 779 975 l 854 944 m 424 546 q 368 416 424 465 q 226 367 313 367 q 74 401 135 367 l 99 464 q 213 438 149 438 q 331 546 331 438 q 169 660 331 667 l 169 715 q 311 819 311 726 q 219 899 311 899 q 119 875 167 899 l 93 932 q 235 965 154 965 q 353 929 306 965 q 400 829 400 893 q 307 701 400 744 q 424 546 424 661 m 882 485 q 843 413 874 467 l 710 186 l 881 186 l 881 413 q 882 485 881 444 z "},"¿":{"ha":547,"x_min":58,"x_max":528,"o":"m 399 583 q 375 528 399 551 q 319 504 351 504 q 263 528 286 504 q 239 583 239 551 q 263 640 239 617 q 319 664 286 664 q 375 640 351 664 q 399 583 399 617 m 528 -257 q 328 -308 447 -308 q 131 -248 204 -308 q 58 -85 58 -187 q 129 67 58 0 q 258 142 185 119 l 274 344 l 365 344 l 385 103 q 253 44 307 85 q 186 -76 186 -6 q 349 -221 186 -221 q 493 -185 426 -221 l 528 -257 z "},"À":{"ha":813,"x_min":26,"x_max":786,"o":"m 446 1028 l 376 1028 l 218 1217 q 268 1242 226 1242 q 347 1218 310 1242 l 446 1028 m 786 0 l 654 0 l 564 286 l 236 286 l 143 0 l 26 0 l 350 956 l 464 956 l 786 0 m 543 363 l 432 725 q 404 838 408 800 l 401 838 q 372 725 393 800 l 258 363 l 543 363 z "},"Á":{"ha":813,"x_min":26,"x_max":786,"o":"m 582 1217 l 424 1028 l 354 1028 l 451 1218 q 531 1242 489 1242 q 582 1217 572 1242 m 786 0 l 654 0 l 564 286 l 236 286 l 143 0 l 26 0 l 350 956 l 464 956 l 786 0 m 543 363 l 432 725 q 404 838 408 800 l 401 838 q 372 725 393 800 l 258 363 l 543 363 z "},"Â":{"ha":813,"x_min":26,"x_max":786,"o":"m 592 1056 l 556 1026 l 408 1136 l 258 1026 l 224 1056 l 361 1196 q 407 1217 382 1217 q 454 1196 433 1217 l 592 1056 m 786 0 l 654 0 l 564 286 l 236 286 l 143 0 l 26 0 l 350 956 l 464 956 l 786 0 m 543 363 l 432 725 q 404 838 408 800 l 401 838 q 372 725 393 800 l 258 363 l 543 363 z "},"Ã":{"ha":813,"x_min":26,"x_max":786,"o":"m 601 1119 q 507 1047 581 1058 q 408 1072 467 1042 q 318 1099 350 1101 q 246 1038 269 1093 l 210 1093 q 308 1169 239 1163 q 404 1142 350 1174 q 490 1115 458 1111 q 563 1176 542 1122 l 601 1119 m 786 0 l 654 0 l 564 286 l 236 286 l 143 0 l 26 0 l 350 956 l 464 956 l 786 0 m 543 363 l 432 725 q 404 838 408 800 l 401 838 q 372 725 393 800 l 258 363 l 543 363 z "},"Ä":{"ha":813,"x_min":26,"x_max":786,"o":"m 585 1111 q 566 1069 585 1086 q 521 1051 547 1051 q 477 1069 496 1051 q 458 1111 458 1086 q 477 1153 458 1136 q 521 1171 496 1171 q 566 1153 547 1171 q 585 1111 585 1136 m 356 1111 q 338 1069 356 1086 q 293 1051 319 1051 q 249 1069 267 1051 q 231 1111 231 1086 q 249 1153 231 1136 q 293 1171 267 1171 q 338 1153 319 1171 q 356 1111 356 1136 m 786 0 l 654 0 l 564 286 l 236 286 l 143 0 l 26 0 l 350 956 l 464 956 l 786 0 m 543 363 l 432 725 q 404 838 408 800 l 401 838 q 372 725 393 800 l 258 363 l 543 363 z "},"Å":{"ha":813,"x_min":26,"x_max":786,"o":"m 519 1136 q 487 1058 519 1090 q 407 1025 454 1025 q 328 1058 361 1025 q 296 1136 296 1090 q 328 1216 296 1183 q 407 1249 361 1249 q 487 1216 454 1249 q 519 1136 519 1183 m 786 0 l 654 0 l 564 286 l 236 286 l 143 0 l 26 0 l 350 956 l 464 956 l 786 0 m 472 1136 q 453 1183 472 1164 q 407 1201 435 1201 q 361 1183 381 1201 q 342 1136 342 1164 q 361 1090 342 1110 q 407 1071 381 1071 q 453 1090 435 1071 q 472 1136 472 1110 m 543 363 l 432 725 q 404 838 408 800 l 401 838 q 372 725 393 800 l 258 363 l 543 363 z "},"Æ":{"ha":1035,"x_min":7,"x_max":1004,"o":"m 1004 0 l 639 0 l 572 286 l 239 286 l 125 0 l 7 0 l 406 956 l 911 956 l 911 869 l 546 869 l 631 536 l 911 536 l 911 451 l 650 451 l 743 86 l 1004 86 l 1004 0 m 560 364 l 469 760 q 456 849 458 807 l 453 849 q 425 758 449 828 l 269 364 l 560 364 z "},"Ç":{"ha":664,"x_min":75,"x_max":621,"o":"m 621 39 q 433 -14 551 -14 q 168 131 267 -14 q 75 478 75 267 q 168 824 75 686 q 433 969 267 969 q 619 917 547 969 l 589 842 q 456 879 528 879 q 264 754 328 879 q 208 478 208 649 q 265 203 208 308 q 454 82 331 82 q 588 119 526 82 l 621 39 m 549 -172 q 301 -276 549 -276 q 193 -272 251 -276 l 222 -225 q 292 -228 258 -228 q 457 -174 457 -228 q 346 -126 457 -126 q 281 -129 318 -126 l 308 -86 q 382 -82 349 -82 q 549 -172 549 -82 z "},"È":{"ha":613,"x_min":107,"x_max":550,"o":"m 389 1028 l 319 1028 l 161 1217 q 213 1242 171 1242 q 292 1218 254 1242 l 389 1028 m 550 0 l 107 0 l 107 956 l 550 956 l 550 869 l 235 869 l 235 536 l 518 536 l 518 451 l 235 451 l 235 86 l 550 86 l 550 0 z "},"É":{"ha":613,"x_min":107,"x_max":550,"o":"m 493 1217 l 335 1028 l 265 1028 l 363 1218 q 442 1242 400 1242 q 493 1217 483 1242 m 550 0 l 107 0 l 107 956 l 550 956 l 550 869 l 235 869 l 235 536 l 518 536 l 518 451 l 235 451 l 235 86 l 550 86 l 550 0 z "},"Ê":{"ha":613,"x_min":107,"x_max":550,"o":"m 504 1056 l 469 1026 l 321 1136 l 172 1026 l 138 1056 l 274 1196 q 319 1217 294 1217 q 368 1196 347 1217 l 504 1056 m 550 0 l 107 0 l 107 956 l 550 956 l 550 869 l 235 869 l 235 536 l 518 536 l 518 451 l 235 451 l 235 86 l 550 86 l 550 0 z "},"Ë":{"ha":613,"x_min":107,"x_max":550,"o":"m 500 1111 q 481 1069 500 1086 q 438 1051 463 1051 q 392 1069 411 1051 q 374 1111 374 1086 q 392 1153 374 1136 q 438 1171 411 1171 q 481 1153 463 1171 q 500 1111 500 1136 m 272 1111 q 253 1069 272 1086 q 208 1051 235 1051 q 164 1069 182 1051 q 146 1111 146 1086 q 164 1153 146 1136 q 208 1171 182 1171 q 253 1153 235 1171 q 272 1111 272 1136 m 550 0 l 107 0 l 107 956 l 550 956 l 550 869 l 235 869 l 235 536 l 518 536 l 518 451 l 235 451 l 235 86 l 550 86 l 550 0 z "},"Ì":{"ha":351,"x_min":21,"x_max":249,"o":"m 249 1028 l 179 1028 l 21 1217 q 72 1242 31 1242 q 151 1218 114 1242 l 249 1028 m 240 0 l 113 0 l 113 956 l 240 956 l 240 0 z "},"Í":{"ha":351,"x_min":103,"x_max":331,"o":"m 331 1217 l 171 1028 l 103 1028 l 200 1218 q 279 1242 238 1242 q 331 1217 321 1242 m 239 0 l 111 0 l 111 956 l 239 956 l 239 0 z "},"Î":{"ha":351,"x_min":-8,"x_max":358,"o":"m 358 1056 l 324 1026 l 176 1136 l 26 1026 l -8 1056 l 129 1196 q 175 1217 150 1217 q 222 1196 201 1217 l 358 1056 m 239 0 l 111 0 l 111 956 l 239 956 l 239 0 z "},"Ï":{"ha":351,"x_min":-1,"x_max":353,"o":"m 353 1111 q 334 1069 353 1086 q 290 1051 315 1051 q 245 1069 264 1051 q 226 1111 226 1086 q 245 1153 226 1136 q 290 1171 264 1171 q 334 1153 315 1171 q 353 1111 353 1136 m 124 1111 q 106 1069 124 1086 q 61 1051 88 1051 q 17 1069 35 1051 q -1 1111 -1 1086 q 17 1153 -1 1136 q 61 1171 35 1171 q 106 1153 88 1171 q 124 1111 124 1136 m 239 0 l 111 0 l 111 956 l 239 956 l 239 0 z "},"Ð":{"ha":864,"x_min":58,"x_max":789,"o":"m 789 488 q 694 126 789 257 q 396 -14 593 -14 q 143 39 226 -14 l 143 482 l 58 482 l 58 551 l 143 551 l 143 917 q 390 969 239 969 q 689 839 585 969 q 789 488 789 714 m 657 489 q 386 888 657 888 q 268 869 314 888 l 268 551 l 428 551 l 428 482 l 268 482 l 268 93 q 389 75 319 75 q 596 181 531 75 q 657 489 657 281 z "},"Ñ":{"ha":899,"x_min":107,"x_max":792,"o":"m 644 1119 q 550 1047 624 1058 q 452 1072 510 1042 q 363 1099 394 1101 q 289 1038 313 1093 l 253 1093 q 351 1169 282 1163 q 447 1142 392 1174 q 535 1115 503 1111 q 607 1176 586 1122 l 644 1119 m 792 0 l 681 0 l 274 697 q 213 813 242 753 l 210 813 q 214 694 214 750 l 214 0 l 107 0 l 107 956 l 242 956 l 632 285 q 686 183 664 231 l 689 183 q 685 289 685 233 l 685 956 l 792 956 l 792 0 z "},"Ò":{"ha":840,"x_min":75,"x_max":765,"o":"m 485 1028 l 415 1028 l 257 1217 q 308 1242 267 1242 q 388 1218 350 1242 l 485 1028 m 765 478 q 686 129 765 257 q 421 -14 597 -14 q 154 129 244 -14 q 75 478 75 257 q 154 825 75 697 q 421 969 244 969 q 686 825 596 969 q 765 478 765 697 m 636 482 q 421 885 636 885 q 204 482 204 885 q 421 81 204 81 q 636 482 636 81 z "},"Ó":{"ha":840,"x_min":75,"x_max":765,"o":"m 576 1217 l 418 1028 l 349 1028 l 446 1218 q 525 1242 483 1242 q 576 1217 567 1242 m 765 478 q 686 129 765 257 q 421 -14 597 -14 q 154 129 244 -14 q 75 478 75 257 q 154 825 75 697 q 421 969 244 969 q 686 825 596 969 q 765 478 765 697 m 636 482 q 421 885 636 885 q 204 482 204 885 q 421 81 204 81 q 636 482 636 81 z "},"Ô":{"ha":840,"x_min":75,"x_max":765,"o":"m 604 1056 l 569 1026 l 421 1136 l 272 1026 l 238 1056 l 374 1196 q 419 1217 394 1217 q 468 1196 447 1217 l 604 1056 m 765 478 q 686 129 765 257 q 421 -14 597 -14 q 154 129 244 -14 q 75 478 75 257 q 154 825 75 697 q 421 969 244 969 q 686 825 596 969 q 765 478 765 697 m 636 482 q 421 885 636 885 q 204 482 204 885 q 421 81 204 81 q 636 482 636 81 z "},"Õ":{"ha":840,"x_min":75,"x_max":765,"o":"m 613 1119 q 517 1047 589 1057 q 419 1072 476 1042 q 329 1099 361 1101 q 257 1038 276 1093 l 221 1093 q 318 1169 249 1163 q 415 1142 360 1174 q 501 1115 469 1111 q 574 1176 553 1122 l 613 1119 m 765 478 q 686 129 765 257 q 421 -14 597 -14 q 154 129 244 -14 q 75 478 75 257 q 154 825 75 697 q 421 969 244 969 q 686 825 596 969 q 765 478 765 697 m 636 482 q 421 885 636 885 q 204 482 204 885 q 421 81 204 81 q 636 482 636 81 z "},"Ö":{"ha":840,"x_min":75,"x_max":765,"o":"m 597 1111 q 579 1069 597 1086 q 535 1051 561 1051 q 490 1069 508 1051 q 472 1111 472 1086 q 490 1153 472 1136 q 535 1171 508 1171 q 579 1153 561 1171 q 597 1111 597 1136 m 369 1111 q 351 1069 369 1086 q 306 1051 332 1051 q 261 1069 279 1051 q 243 1111 243 1086 q 261 1153 243 1136 q 306 1171 279 1171 q 351 1153 332 1171 q 369 1111 369 1136 m 765 478 q 686 129 765 257 q 421 -14 597 -14 q 154 129 244 -14 q 75 478 75 257 q 154 825 75 697 q 421 969 244 969 q 686 825 596 969 q 765 478 765 697 m 636 482 q 421 885 636 885 q 204 482 204 885 q 421 81 204 81 q 636 482 636 81 z "},"×":{"ha":733,"x_min":93,"x_max":640,"o":"m 640 219 l 582 164 l 367 403 l 153 165 l 94 221 l 311 463 l 93 706 l 151 761 l 367 522 l 581 761 l 639 706 l 422 463 l 640 219 z "},"Ø":{"ha":847,"x_min":78,"x_max":769,"o":"m 769 478 q 690 129 769 257 q 424 -14 600 -14 q 197 81 283 -14 l 124 -33 l 82 -7 l 164 121 q 78 478 78 249 q 158 825 78 697 q 424 969 249 969 q 646 878 561 969 l 719 994 l 761 968 l 679 839 q 769 478 769 708 m 589 788 q 424 892 532 892 q 244 763 303 892 q 199 482 199 657 q 238 236 199 331 l 589 788 m 649 482 q 608 726 649 631 l 257 176 q 424 74 314 74 q 649 482 649 74 z "},"Ù":{"ha":810,"x_min":107,"x_max":703,"o":"m 490 1028 l 421 1028 l 263 1217 q 314 1242 272 1242 q 393 1218 356 1242 l 490 1028 m 703 272 q 622 68 703 147 q 404 -15 539 -15 q 189 67 271 -15 q 107 272 107 149 l 107 956 l 235 956 l 235 274 q 286 135 235 186 q 411 85 338 85 q 535 135 485 85 q 586 274 586 186 l 586 956 l 703 956 l 703 272 z "},"Ú":{"ha":810,"x_min":107,"x_max":703,"o":"m 567 1217 l 407 1028 l 339 1028 l 436 1218 q 515 1242 474 1242 q 567 1217 557 1242 m 703 272 q 622 68 703 147 q 404 -15 539 -15 q 189 67 271 -15 q 107 272 107 149 l 107 956 l 235 956 l 235 274 q 286 135 235 186 q 411 85 338 85 q 535 135 485 85 q 586 274 586 186 l 586 956 l 703 956 l 703 272 z "},"Û":{"ha":810,"x_min":107,"x_max":703,"o":"m 592 1056 l 557 1026 l 408 1136 l 260 1026 l 225 1056 l 361 1196 q 407 1217 382 1217 q 456 1196 435 1217 l 592 1056 m 703 272 q 622 68 703 147 q 404 -15 539 -15 q 189 67 271 -15 q 107 272 107 149 l 107 956 l 235 956 l 235 274 q 286 135 235 186 q 411 85 338 85 q 535 135 485 85 q 586 274 586 186 l 586 956 l 703 956 l 703 272 z "},"Ü":{"ha":810,"x_min":107,"x_max":703,"o":"m 590 1111 q 572 1069 590 1086 q 526 1051 553 1051 q 482 1069 500 1051 q 464 1111 464 1086 q 482 1153 464 1136 q 526 1171 500 1171 q 572 1153 553 1171 q 590 1111 590 1136 m 361 1111 q 342 1069 361 1086 q 297 1051 324 1051 q 253 1069 272 1051 q 235 1111 235 1086 q 253 1153 235 1136 q 297 1171 272 1171 q 342 1153 324 1171 q 361 1111 361 1136 m 703 272 q 622 68 703 147 q 404 -15 539 -15 q 189 67 271 -15 q 107 272 107 149 l 107 956 l 235 956 l 235 274 q 286 135 235 186 q 411 85 338 85 q 535 135 485 85 q 586 274 586 186 l 586 956 l 703 956 l 703 272 z "},"Ý":{"ha":694,"x_min":24,"x_max":674,"o":"m 521 1217 l 363 1028 l 293 1028 l 390 1218 q 469 1242 428 1242 q 521 1217 511 1242 m 674 956 l 411 424 l 411 0 l 283 0 l 283 424 l 24 956 l 163 956 l 353 524 l 356 524 l 553 956 l 674 956 z "},"Þ":{"ha":733,"x_min":107,"x_max":667,"o":"m 667 510 q 585 308 667 385 q 322 225 493 225 q 276 226 300 225 l 233 229 l 233 0 l 107 0 l 107 956 l 233 956 l 233 786 q 346 804 297 804 q 588 719 503 804 q 667 510 667 642 m 543 504 q 487 672 543 614 q 336 731 431 731 q 233 715 286 731 l 233 308 l 272 304 q 321 301 297 301 q 490 361 432 301 q 543 504 543 415 z "},"ß":{"ha":764,"x_min":103,"x_max":703,"o":"m 703 207 q 635 52 703 114 q 465 -10 567 -10 q 326 24 376 -10 l 353 103 q 449 81 392 81 q 544 116 507 81 q 581 208 581 151 q 558 285 581 254 q 481 350 536 315 q 367 529 367 422 q 517 704 367 664 q 528 796 528 739 q 382 1021 528 1021 q 225 743 225 1021 l 225 0 l 103 0 l 103 738 q 161 983 103 888 q 382 1103 233 1103 q 582 1013 510 1103 q 647 796 647 928 q 628 665 647 729 q 479 536 479 646 q 579 406 479 469 q 703 207 703 328 z "},"à":{"ha":693,"x_min":61,"x_max":594,"o":"m 421 831 l 351 831 l 193 1019 q 244 1044 203 1044 q 324 1021 286 1044 l 421 831 m 594 39 q 346 -14 500 -14 q 61 207 61 -14 q 183 413 61 344 q 479 488 281 467 l 479 533 q 314 682 479 682 q 133 635 228 682 l 104 707 q 333 763 206 763 q 594 519 594 763 l 594 39 m 479 82 l 479 425 q 258 365 322 406 q 178 210 178 315 q 356 57 178 57 q 479 82 433 57 z "},"á":{"ha":693,"x_min":61,"x_max":594,"o":"m 529 1019 l 371 831 l 301 831 l 399 1021 q 478 1044 436 1044 q 529 1019 519 1044 m 594 39 q 346 -14 500 -14 q 61 207 61 -14 q 183 413 61 344 q 479 488 281 467 l 479 533 q 314 682 479 682 q 133 635 228 682 l 104 707 q 333 763 206 763 q 594 519 594 763 l 594 39 m 479 82 l 479 425 q 258 365 322 406 q 178 210 178 315 q 356 57 178 57 q 479 82 433 57 z "},"â":{"ha":693,"x_min":61,"x_max":594,"o":"m 532 860 l 497 829 l 349 939 l 200 829 l 164 860 l 301 999 q 347 1019 322 1019 q 394 999 374 1019 l 532 860 m 594 39 q 346 -14 500 -14 q 61 207 61 -14 q 183 413 61 344 q 479 488 281 467 l 479 533 q 314 682 479 682 q 133 635 228 682 l 104 707 q 333 763 206 763 q 594 519 594 763 l 594 39 m 479 82 l 479 425 q 258 365 322 406 q 178 210 178 315 q 356 57 178 57 q 479 82 433 57 z "},"ã":{"ha":693,"x_min":61,"x_max":594,"o":"m 542 924 q 446 850 518 860 q 348 876 406 844 q 258 903 290 907 q 185 842 210 897 l 150 897 q 247 972 178 965 q 344 945 289 976 q 431 918 399 914 q 503 979 482 924 l 542 924 m 594 39 q 346 -14 500 -14 q 61 207 61 -14 q 183 413 61 344 q 479 488 281 467 l 479 533 q 314 682 479 682 q 133 635 228 682 l 104 707 q 333 763 206 763 q 594 519 594 763 l 594 39 m 479 82 l 479 425 q 258 365 322 406 q 178 210 178 315 q 356 57 178 57 q 479 82 433 57 z "},"ä":{"ha":693,"x_min":61,"x_max":594,"o":"m 532 915 q 513 874 532 890 q 468 857 494 857 q 424 874 442 857 q 406 915 406 892 q 424 958 406 940 q 468 975 442 975 q 513 958 494 975 q 532 915 532 940 m 303 915 q 284 874 303 890 q 240 857 265 857 q 195 874 214 857 q 176 915 176 892 q 195 958 176 940 q 240 975 214 975 q 284 958 265 975 q 303 915 303 940 m 594 39 q 346 -14 500 -14 q 61 207 61 -14 q 183 413 61 344 q 479 488 281 467 l 479 533 q 314 682 479 682 q 133 635 228 682 l 104 707 q 333 763 206 763 q 594 519 594 763 l 594 39 m 479 82 l 479 425 q 258 365 322 406 q 178 210 178 315 q 356 57 178 57 q 479 82 433 57 z "},"å":{"ha":693,"x_min":61,"x_max":594,"o":"m 465 940 q 433 860 465 893 q 353 828 400 828 q 274 860 307 828 q 242 940 242 893 q 274 1019 242 986 q 353 1051 307 1051 q 433 1019 400 1051 q 465 940 465 986 m 594 39 q 346 -14 500 -14 q 61 207 61 -14 q 183 413 61 344 q 479 488 281 467 l 479 533 q 314 682 479 682 q 133 635 228 682 l 104 707 q 333 763 206 763 q 594 519 594 763 l 594 39 m 418 940 q 399 987 418 968 q 353 1006 381 1006 q 307 987 326 1006 q 288 940 288 968 q 307 894 288 914 q 353 875 326 875 q 399 894 381 875 q 418 940 418 914 m 479 82 l 479 425 q 258 365 322 406 q 178 210 178 315 q 356 57 178 57 q 479 82 433 57 z "},"æ":{"ha":1117,"x_min":61,"x_max":1049,"o":"m 1047 396 l 579 326 q 649 133 585 199 q 806 74 707 74 q 989 114 917 74 l 1021 38 q 794 -14 936 -14 q 546 124 629 -14 q 322 -14 483 -14 q 61 206 61 -14 q 478 486 61 446 l 478 533 q 304 683 478 683 q 135 638 221 683 l 107 710 q 328 763 201 763 q 543 628 493 763 q 764 763 611 763 q 1047 396 1049 763 m 931 447 q 758 683 926 683 q 626 615 674 683 q 574 394 572 540 l 931 447 m 478 203 l 478 421 q 253 363 318 401 q 172 207 172 313 q 328 58 172 58 q 434 97 390 58 q 478 203 478 136 z "},"ç":{"ha":571,"x_min":69,"x_max":522,"o":"m 522 36 q 354 -14 467 -14 q 149 92 229 -14 q 69 375 69 197 q 151 661 69 556 q 357 763 229 763 q 522 713 465 763 l 493 642 q 382 678 444 678 q 193 379 193 678 q 240 161 193 242 q 378 76 289 76 q 492 113 440 76 l 522 36 m 472 -172 q 225 -276 472 -276 q 117 -272 175 -276 l 144 -225 q 215 -228 181 -228 q 381 -174 381 -228 q 269 -126 381 -126 q 204 -129 242 -126 l 232 -86 q 306 -82 272 -82 q 472 -172 472 -82 z "},"è":{"ha":725,"x_min":69,"x_max":660,"o":"m 431 831 l 361 831 l 203 1019 q 254 1044 213 1044 q 333 1021 296 1044 l 431 831 m 656 396 l 185 328 q 413 75 206 75 q 597 118 522 75 l 629 38 q 403 -14 544 -14 q 163 82 250 -14 q 69 376 69 183 q 154 665 69 563 q 371 763 235 763 q 656 396 660 763 m 539 447 q 367 683 539 683 q 232 614 281 683 q 181 393 179 539 l 539 447 z "},"é":{"ha":725,"x_min":69,"x_max":660,"o":"m 542 1019 l 383 831 l 314 831 l 411 1021 q 490 1044 449 1044 q 542 1019 532 1044 m 656 396 l 185 328 q 413 75 206 75 q 597 118 522 75 l 629 38 q 403 -14 544 -14 q 163 82 250 -14 q 69 376 69 183 q 154 665 69 563 q 371 763 235 763 q 656 396 660 763 m 539 447 q 367 683 539 683 q 232 614 281 683 q 181 393 179 539 l 539 447 z "},"ê":{"ha":725,"x_min":69,"x_max":660,"o":"m 553 860 l 517 829 l 369 939 l 219 829 l 185 860 l 322 999 q 368 1019 343 1019 q 415 999 394 1019 l 553 860 m 656 396 l 185 328 q 413 75 206 75 q 597 118 522 75 l 629 38 q 403 -14 544 -14 q 163 82 250 -14 q 69 376 69 183 q 154 665 69 563 q 371 763 235 763 q 656 396 660 763 m 539 447 q 367 683 539 683 q 232 614 281 683 q 181 393 179 539 l 539 447 z "},"ë":{"ha":725,"x_min":69,"x_max":660,"o":"m 549 915 q 531 874 549 890 q 486 857 513 857 q 442 874 460 857 q 424 915 424 892 q 442 958 424 940 q 486 975 460 975 q 531 958 513 975 q 549 915 549 940 m 321 915 q 302 874 321 890 q 257 857 283 857 q 213 874 231 857 q 194 915 194 892 q 213 958 194 940 q 257 975 231 975 q 302 958 283 975 q 321 915 321 940 m 656 396 l 185 328 q 413 75 206 75 q 597 118 522 75 l 629 38 q 403 -14 544 -14 q 163 82 250 -14 q 69 376 69 183 q 154 665 69 563 q 371 763 235 763 q 656 396 660 763 m 539 447 q 367 683 539 683 q 232 614 281 683 q 181 393 179 539 l 539 447 z "},"ì":{"ha":335,"x_min":11,"x_max":239,"o":"m 239 831 l 169 831 l 11 1019 q 63 1044 21 1044 q 142 1021 104 1044 l 239 831 m 229 0 l 107 0 l 107 749 l 229 749 l 229 0 z "},"í":{"ha":335,"x_min":96,"x_max":324,"o":"m 324 1019 l 165 831 l 96 831 l 193 1021 q 274 1044 231 1044 q 324 1019 315 1044 m 229 0 l 107 0 l 107 749 l 229 749 l 229 0 z "},"î":{"ha":335,"x_min":-17,"x_max":351,"o":"m 351 860 l 317 829 l 168 939 l 19 829 l -17 860 l 121 999 q 167 1019 142 1019 q 214 999 193 1019 l 351 860 m 229 0 l 107 0 l 107 749 l 229 749 l 229 0 z "},"ï":{"ha":335,"x_min":-10,"x_max":344,"o":"m 344 915 q 326 874 344 890 q 281 857 307 857 q 237 874 256 857 q 218 915 218 892 q 237 958 218 940 q 281 975 256 975 q 326 958 307 975 q 344 915 344 940 m 117 915 q 98 874 117 890 q 54 857 79 857 q 9 874 28 857 q -10 915 -10 892 q 9 958 -10 940 q 54 975 28 975 q 98 958 79 975 q 117 915 117 940 m 229 0 l 107 0 l 107 749 l 229 749 l 229 0 z "},"ð":{"ha":724,"x_min":69,"x_max":650,"o":"m 650 369 q 582 93 650 193 q 364 -17 508 -17 q 147 87 225 -17 q 69 368 69 190 q 136 632 69 528 q 360 753 213 753 q 458 739 410 753 q 360 938 410 856 l 235 900 q 203 949 224 928 l 326 988 q 261 1069 296 1033 l 363 1101 q 428 1021 381 1083 l 536 1054 q 553 1031 539 1051 q 569 1006 567 1010 l 460 971 q 650 369 650 667 m 528 374 q 478 668 528 539 q 381 682 432 682 q 192 369 192 682 q 365 68 192 68 q 528 374 528 68 z "},"ñ":{"ha":740,"x_min":99,"x_max":642,"o":"m 561 924 q 465 850 538 861 q 367 876 425 844 q 278 903 310 907 q 206 842 226 897 l 169 897 q 267 972 197 965 q 363 945 308 976 q 450 918 418 914 q 522 979 501 924 l 561 924 m 642 0 l 519 0 l 519 544 q 363 683 519 683 q 221 657 282 683 l 221 0 l 99 0 l 99 710 q 375 763 208 763 q 642 546 642 763 l 642 0 z "},"ò":{"ha":724,"x_min":69,"x_max":654,"o":"m 418 831 l 350 831 l 190 1019 q 242 1044 200 1044 q 321 1021 283 1044 l 418 831 m 654 374 q 585 97 654 200 q 363 -14 508 -14 q 139 97 217 -14 q 69 374 69 200 q 140 651 69 550 q 361 763 217 763 q 585 651 508 763 q 654 374 654 551 m 532 374 q 363 685 532 685 q 192 374 192 685 q 363 71 192 71 q 532 374 532 71 z "},"ó":{"ha":724,"x_min":69,"x_max":654,"o":"m 533 1019 l 375 831 l 306 831 l 403 1021 q 482 1044 440 1044 q 533 1019 524 1044 m 654 374 q 585 97 654 200 q 363 -14 508 -14 q 139 97 217 -14 q 69 374 69 200 q 140 651 69 550 q 361 763 217 763 q 585 651 508 763 q 654 374 654 551 m 532 374 q 363 685 532 685 q 192 374 192 685 q 363 71 192 71 q 532 374 532 71 z "},"ô":{"ha":724,"x_min":69,"x_max":654,"o":"m 546 860 l 510 829 l 363 939 l 213 829 l 178 860 l 315 999 q 361 1019 336 1019 q 408 999 388 1019 l 546 860 m 654 374 q 585 97 654 200 q 363 -14 508 -14 q 139 97 217 -14 q 69 374 69 200 q 140 651 69 550 q 361 763 217 763 q 585 651 508 763 q 654 374 654 551 m 532 374 q 363 685 532 685 q 192 374 192 685 q 363 71 192 71 q 532 374 532 71 z "},"õ":{"ha":724,"x_min":69,"x_max":654,"o":"m 554 924 q 460 850 533 861 q 362 876 419 844 q 272 903 304 907 q 199 842 224 897 l 163 897 q 261 972 193 965 q 358 945 303 976 q 444 918 413 914 q 517 979 496 924 l 554 924 m 654 374 q 585 97 654 200 q 363 -14 508 -14 q 139 97 217 -14 q 69 374 69 200 q 140 651 69 550 q 361 763 217 763 q 585 651 508 763 q 654 374 654 551 m 532 374 q 363 685 532 685 q 192 374 192 685 q 363 71 192 71 q 532 374 532 71 z "},"ö":{"ha":724,"x_min":69,"x_max":654,"o":"m 539 915 q 520 874 539 890 q 475 857 501 857 q 431 874 450 857 q 413 915 413 892 q 431 958 413 940 q 475 975 450 975 q 520 958 501 975 q 539 915 539 940 m 310 915 q 291 874 310 890 q 247 857 272 857 q 202 874 221 857 q 183 915 183 892 q 202 958 183 940 q 247 975 221 975 q 291 958 272 975 q 310 915 310 940 m 654 374 q 585 97 654 200 q 363 -14 508 -14 q 139 97 217 -14 q 69 374 69 200 q 140 651 69 550 q 361 763 217 763 q 585 651 508 763 q 654 374 654 551 m 532 374 q 363 685 532 685 q 192 374 192 685 q 363 71 192 71 q 532 374 532 71 z "},"÷":{"ha":733,"x_min":100,"x_max":633,"o":"m 435 683 q 415 634 435 654 q 367 614 394 614 q 317 634 338 614 q 297 683 297 654 q 317 731 297 711 q 367 751 338 751 q 415 731 394 751 q 435 683 435 711 m 633 426 l 100 426 l 100 499 l 633 499 l 633 426 m 435 242 q 415 192 435 213 q 367 172 394 172 q 317 192 338 172 q 297 242 297 213 q 317 290 297 269 q 367 310 338 310 q 415 290 394 310 q 435 242 435 269 z "},"ø":{"ha":726,"x_min":69,"x_max":657,"o":"m 657 374 q 586 97 657 200 q 364 -14 510 -14 q 193 43 263 -14 l 131 -65 l 94 -43 l 161 72 q 69 374 69 174 q 140 651 69 550 q 363 763 217 763 q 529 708 463 763 l 590 814 l 626 792 l 563 681 q 657 374 657 578 m 486 632 q 364 696 440 696 q 183 375 183 696 q 218 171 183 249 l 486 632 m 543 375 q 508 586 543 504 l 242 125 q 364 64 285 64 q 543 375 543 64 z "},"ù":{"ha":726,"x_min":99,"x_max":628,"o":"m 436 831 l 368 831 l 208 1019 q 260 1044 218 1044 q 339 1021 301 1044 l 436 831 m 628 44 q 364 -15 524 -15 q 99 229 99 -15 l 99 749 l 221 749 l 221 225 q 257 115 221 156 q 371 71 297 71 q 506 101 454 71 l 506 749 l 628 749 l 628 44 z "},"ú":{"ha":726,"x_min":99,"x_max":628,"o":"m 538 1019 l 378 831 l 310 831 l 407 1021 q 486 1044 444 1044 q 538 1019 528 1044 m 628 44 q 364 -15 524 -15 q 99 229 99 -15 l 99 749 l 221 749 l 221 225 q 257 115 221 156 q 371 71 297 71 q 506 101 454 71 l 506 749 l 628 749 l 628 44 z "},"û":{"ha":726,"x_min":99,"x_max":628,"o":"m 547 860 l 513 829 l 364 939 l 215 829 l 181 860 l 317 999 q 364 1019 338 1019 q 411 999 390 1019 l 547 860 m 628 44 q 364 -15 524 -15 q 99 229 99 -15 l 99 749 l 221 749 l 221 225 q 257 115 221 156 q 371 71 297 71 q 506 101 454 71 l 506 749 l 628 749 l 628 44 z "},"ü":{"ha":726,"x_min":99,"x_max":628,"o":"m 540 915 q 522 874 540 890 q 478 857 503 857 q 433 874 451 857 q 414 915 414 892 q 433 958 414 940 q 478 975 451 975 q 522 958 503 975 q 540 915 540 940 m 311 915 q 293 874 311 890 q 249 857 275 857 q 204 874 222 857 q 186 915 186 892 q 204 958 186 940 q 249 975 222 975 q 293 958 275 975 q 311 915 311 940 m 628 44 q 364 -15 524 -15 q 99 229 99 -15 l 99 749 l 221 749 l 221 225 q 257 115 221 156 q 371 71 297 71 q 506 101 454 71 l 506 749 l 628 749 l 628 44 z "},"ý":{"ha":678,"x_min":40,"x_max":642,"o":"m 517 1019 l 357 831 l 289 831 l 386 1021 q 465 1044 424 1044 q 517 1019 507 1044 m 642 749 l 296 -299 l 167 -299 l 290 0 l 40 749 l 171 749 l 346 143 l 347 143 l 528 749 l 642 749 z "},"þ":{"ha":733,"x_min":99,"x_max":664,"o":"m 664 389 q 569 94 664 204 q 335 -10 478 -10 q 221 7 279 -10 l 221 -299 l 99 -299 l 99 1090 l 219 1090 l 219 726 q 353 760 283 760 q 582 660 500 760 q 664 389 664 561 m 543 378 q 329 688 543 688 q 221 661 268 688 l 221 78 q 311 64 274 64 q 493 161 433 64 q 543 378 543 242 z "},"ÿ":{"ha":678,"x_min":40,"x_max":642,"o":"m 524 915 q 506 874 524 890 q 461 857 488 857 q 417 874 435 857 q 399 915 399 892 q 417 958 399 940 q 461 975 435 975 q 506 958 488 975 q 524 915 524 940 m 296 915 q 277 874 296 890 q 232 857 258 857 q 188 874 206 857 q 169 915 169 892 q 188 958 169 940 q 232 975 206 975 q 277 958 258 975 q 296 915 296 940 m 642 749 l 296 -299 l 167 -299 l 290 0 l 40 749 l 171 749 l 346 143 l 347 143 l 528 749 l 642 749 z "},"ı":{"ha":318,"x_min":99,"x_max":219,"o":"m 219 0 l 99 0 l 99 749 l 219 749 l 219 0 z "},"Ł":{"ha":582,"x_min":40,"x_max":542,"o":"m 542 0 l 128 0 l 128 572 l 40 528 l 40 597 l 128 642 l 128 956 l 256 956 l 256 689 l 357 740 l 357 672 l 256 621 l 256 86 l 542 86 l 542 0 z "},"ł":{"ha":407,"x_min":46,"x_max":365,"o":"m 365 674 l 264 621 l 264 0 l 142 0 l 142 576 l 46 524 l 46 597 l 142 647 l 142 1090 l 264 1090 l 264 692 l 365 743 l 365 674 z "},"Œ":{"ha":1057,"x_min":75,"x_max":994,"o":"m 994 0 l 571 0 q 457 -14 526 -14 q 168 128 268 -14 q 75 478 75 257 q 167 829 75 700 q 456 969 267 969 q 571 956 515 969 l 994 956 l 994 869 l 679 869 l 679 536 l 964 536 l 964 451 l 679 451 l 679 88 l 994 88 l 994 0 m 560 81 l 560 878 q 460 890 517 890 q 253 750 317 890 q 206 479 206 646 q 254 210 206 313 q 460 71 318 71 q 560 81 526 71 z "},"œ":{"ha":1169,"x_min":69,"x_max":1100,"o":"m 1100 390 l 635 338 q 864 72 658 72 q 1043 115 964 72 l 1075 38 q 850 -14 988 -14 q 588 157 667 -14 q 361 -14 524 -14 q 140 97 217 -14 q 69 374 69 200 q 140 651 69 550 q 361 763 217 763 q 585 608 508 763 q 817 763 658 763 q 1100 390 1100 763 m 982 443 q 813 689 982 689 q 679 619 728 689 q 629 403 628 544 l 982 443 m 531 375 q 361 685 531 685 q 189 375 189 685 q 361 69 189 69 q 531 375 531 69 z "},"Š":{"ha":646,"x_min":60,"x_max":571,"o":"m 507 1188 l 369 1049 q 321 1028 349 1028 q 275 1049 296 1028 l 138 1188 l 172 1217 l 322 1107 l 472 1217 l 507 1188 m 571 269 q 490 65 571 144 q 282 -14 408 -14 q 60 39 142 -14 l 93 128 q 260 83 165 83 q 390 132 342 83 q 439 263 439 181 q 401 368 439 326 q 272 446 363 410 q 69 701 69 526 q 144 892 69 814 q 339 969 218 969 q 535 918 461 969 l 504 838 q 353 882 433 882 q 236 837 278 882 q 194 714 194 792 q 242 603 194 646 q 354 539 276 569 q 571 269 571 454 z "},"š":{"ha":561,"x_min":53,"x_max":496,"o":"m 465 992 l 328 851 q 279 831 307 831 q 233 851 254 831 l 96 992 l 131 1021 l 281 910 l 431 1021 l 465 992 m 496 208 q 428 56 496 119 q 244 -11 356 -11 q 53 40 121 -11 l 86 121 q 232 76 139 76 q 332 113 293 76 q 371 206 371 150 q 342 293 371 261 q 247 349 313 325 q 72 558 72 414 q 134 704 72 644 q 296 764 196 764 q 471 713 394 764 l 439 639 q 314 681 383 681 q 222 647 256 681 q 189 563 189 613 q 314 428 189 475 q 496 208 496 358 z "},"Ÿ":{"ha":694,"x_min":24,"x_max":674,"o":"m 531 1111 q 512 1069 531 1086 q 467 1051 493 1051 q 422 1069 440 1051 q 404 1111 404 1086 q 422 1153 404 1136 q 467 1171 440 1171 q 512 1153 493 1171 q 531 1111 531 1136 m 301 1111 q 283 1069 301 1086 q 239 1051 264 1051 q 194 1069 213 1051 q 175 1111 175 1086 q 194 1153 175 1136 q 239 1171 213 1171 q 283 1153 264 1171 q 301 1111 301 1136 m 674 956 l 411 424 l 411 0 l 283 0 l 283 424 l 24 956 l 163 956 l 353 524 l 356 524 l 553 956 l 674 956 z "},"Ž":{"ha":601,"x_min":33,"x_max":556,"o":"m 482 1188 l 344 1049 q 297 1028 324 1028 q 250 1049 271 1028 l 113 1188 l 147 1217 l 299 1107 l 447 1217 l 482 1188 m 556 0 l 33 0 l 385 869 l 56 869 l 56 956 l 546 956 l 199 86 l 556 86 l 556 0 z "},"ž":{"ha":579,"x_min":42,"x_max":524,"o":"m 469 992 l 332 851 q 285 831 311 831 q 238 851 258 831 l 100 992 l 135 1021 l 286 910 l 435 1021 l 469 992 m 524 0 l 42 0 l 357 672 l 65 672 l 65 749 l 513 749 l 204 76 l 524 76 l 524 0 z "},"ƒ":{"ha":782,"x_min":15,"x_max":719,"o":"m 719 950 l 703 872 q 633 883 669 883 q 529 810 567 883 q 490 672 510 769 l 469 571 l 624 571 l 624 497 l 454 497 l 361 1 q 104 -308 303 -308 q 15 -292 57 -308 l 31 -206 q 86 -217 60 -217 q 189 -156 151 -217 q 246 31 221 -100 l 333 497 l 182 497 l 182 571 l 349 571 q 369 678 350 579 q 442 885 397 824 q 614 968 499 968 q 719 950 675 968 z "},"ˆ":{"ha":272,"x_min":-47,"x_max":319,"o":"m 319 860 l 285 829 l 136 939 l -12 829 l -47 860 l 89 999 q 136 1019 110 1019 q 183 999 163 1019 l 319 860 z "},"ˇ":{"ha":272,"x_min":-49,"x_max":321,"o":"m 321 992 l 183 851 q 136 831 163 831 q 89 851 110 831 l -49 992 l -14 1021 l 136 910 l 286 1021 l 321 992 z "},"¯":{"ha":272,"x_min":-61,"x_max":333,"o":"m 333 874 l -61 874 l -61 944 l 333 944 l 333 874 z "},"ˉ":{"ha":272,"x_min":-61,"x_max":333,"o":"m 333 874 l -61 874 l -61 944 l 333 944 l 333 874 z "},"˘":{"ha":272,"x_min":-43,"x_max":315,"o":"m 315 996 q 275 889 315 936 q 136 831 225 831 q -3 889 47 831 q -43 996 -43 936 l 0 1011 q 135 901 24 901 q 274 1011 244 901 l 315 996 z "},"˙":{"ha":272,"x_min":69,"x_max":203,"o":"m 203 960 q 183 912 203 932 q 136 892 164 892 q 89 912 108 892 q 69 960 69 932 q 89 1007 69 988 q 136 1026 108 1026 q 183 1007 164 1026 q 203 960 203 988 z "},"˚":{"ha":272,"x_min":24,"x_max":247,"o":"m 247 940 q 215 860 247 893 q 136 828 182 828 q 56 860 89 828 q 24 940 24 893 q 56 1019 24 986 q 136 1051 89 1051 q 215 1019 182 1051 q 247 940 247 986 m 200 940 q 181 987 200 968 q 136 1006 163 1006 q 90 987 110 1006 q 71 940 71 968 q 90 894 71 914 q 136 875 110 875 q 181 894 163 875 q 200 940 200 913 z "},"˛":{"ha":272,"x_min":71,"x_max":338,"o":"m 338 -210 q 190 -242 263 -242 q 71 -167 71 -242 q 101 -78 71 -117 q 219 7 132 -40 l 306 7 q 189 -76 221 -42 q 163 -144 163 -107 q 229 -183 163 -183 q 325 -164 271 -183 l 338 -210 z "},"˜":{"ha":272,"x_min":-60,"x_max":332,"o":"m 332 924 q 238 850 308 860 q 139 876 197 844 q 49 903 81 907 q -24 842 1 897 l -60 897 q 38 972 -29 965 q 134 945 79 976 q 221 918 189 914 q 293 979 272 924 l 332 924 z "},"˝":{"ha":272,"x_min":-47,"x_max":358,"o":"m 358 1007 l 190 829 l 135 829 l 253 1006 q 322 1029 282 1029 q 358 1007 358 1029 m 176 1007 l 8 829 l -47 829 l 71 1006 q 140 1029 100 1029 q 176 1007 176 1029 z "},"Δ":{"ha":799,"x_min":19,"x_max":779,"o":"m 779 0 l 19 0 l 343 956 l 458 956 l 779 0 m 626 81 l 426 725 q 399 829 414 767 l 396 829 q 365 725 388 799 l 161 81 l 626 81 z "},"∆":{"ha":799,"x_min":19,"x_max":779,"o":"m 779 0 l 19 0 l 343 956 l 458 956 l 779 0 m 626 81 l 426 725 q 399 829 414 767 l 396 829 q 365 725 388 799 l 161 81 l 626 81 z "},"Ω":{"ha":903,"x_min":64,"x_max":839,"o":"m 839 0 l 507 0 q 643 238 593 93 q 690 532 690 378 q 451 885 690 885 q 213 532 213 885 q 261 236 213 378 q 396 0 310 94 l 64 0 l 64 86 l 249 86 q 136 288 182 167 q 88 535 88 417 q 179 849 88 735 q 451 969 275 969 q 725 849 629 969 q 817 535 817 735 q 768 289 817 419 q 657 86 722 168 l 839 86 l 839 0 z "},"Ω":{"ha":903,"x_min":64,"x_max":839,"o":"m 839 0 l 507 0 q 643 238 593 93 q 690 532 690 378 q 451 885 690 885 q 213 532 213 885 q 261 236 213 378 q 396 0 310 94 l 64 0 l 64 86 l 249 86 q 136 288 182 167 q 88 535 88 417 q 179 849 88 735 q 451 969 275 969 q 725 849 629 969 q 817 535 817 735 q 768 289 817 419 q 657 86 722 168 l 839 86 l 839 0 z "},"µ":{"ha":740,"x_min":99,"x_max":642,"o":"m 642 46 q 397 -10 542 -10 q 221 38 307 -10 l 221 -299 l 99 -299 l 99 749 l 221 749 l 221 108 q 372 69 290 69 q 519 100 464 69 l 519 749 l 642 749 l 642 46 z "},"μ":{"ha":740,"x_min":99,"x_max":642,"o":"m 642 46 q 397 -10 542 -10 q 221 38 307 -10 l 221 -299 l 99 -299 l 99 749 l 221 749 l 221 108 q 372 69 290 69 q 519 100 464 69 l 519 749 l 642 749 l 642 46 z "},"π":{"ha":894,"x_min":75,"x_max":817,"o":"m 817 0 q 781 -1 797 -1 q 621 74 663 -1 q 596 207 596 117 l 596 669 l 297 669 l 297 0 l 175 0 l 175 669 l 75 669 l 75 749 l 817 749 l 817 669 l 718 669 l 718 210 q 732 121 718 146 q 817 81 753 79 l 817 0 z "},"–":{"ha":556,"x_min":0,"x_max":556,"o":"m 556 424 l 0 424 l 0 508 l 556 508 l 556 424 z "},"—":{"ha":1111,"x_min":0,"x_max":1111,"o":"m 1111 429 l 0 429 l 0 501 l 1111 501 l 1111 429 z "},"‘":{"ha":367,"x_min":76,"x_max":311,"o":"m 311 1090 l 200 747 q 124 713 174 713 q 76 747 86 713 l 247 1090 l 311 1090 z "},"’":{"ha":367,"x_min":56,"x_max":290,"o":"m 290 1061 l 119 718 l 56 718 l 167 1061 q 243 1096 192 1096 q 290 1061 282 1096 z "},"‚":{"ha":367,"x_min":56,"x_max":290,"o":"m 290 108 l 119 -235 l 56 -235 l 167 108 q 243 143 193 143 q 290 108 281 143 z "},"“":{"ha":610,"x_min":76,"x_max":554,"o":"m 554 1090 l 443 747 q 367 713 417 713 q 319 747 326 713 l 490 1090 l 554 1090 m 311 1090 l 200 747 q 124 713 174 713 q 76 747 86 713 l 247 1090 l 311 1090 z "},"”":{"ha":610,"x_min":56,"x_max":533,"o":"m 533 1061 l 361 718 l 299 718 l 410 1061 q 486 1096 435 1096 q 533 1061 525 1096 m 290 1061 l 119 718 l 56 718 l 167 1061 q 243 1096 192 1096 q 290 1061 282 1096 z "},"„":{"ha":610,"x_min":56,"x_max":533,"o":"m 533 108 l 361 -235 l 299 -235 l 410 108 q 486 143 436 143 q 533 108 524 143 m 290 108 l 119 -235 l 56 -235 l 167 108 q 243 143 193 143 q 290 108 281 143 z "},"†":{"ha":768,"x_min":69,"x_max":699,"o":"m 699 635 l 433 646 l 446 -299 l 321 -299 l 333 646 l 69 635 l 69 754 l 333 743 l 319 1090 l 446 1090 l 433 743 l 699 754 l 699 635 z "},"‡":{"ha":768,"x_min":69,"x_max":699,"o":"m 699 75 l 432 83 l 444 -299 l 324 -299 l 335 83 l 69 75 l 69 181 l 335 171 l 332 410 l 335 658 l 69 649 l 69 754 l 335 744 l 324 1090 l 444 1090 l 432 744 l 699 754 l 699 649 l 433 658 l 435 411 l 433 171 l 699 181 l 699 75 z "},"•":{"ha":450,"x_min":94,"x_max":356,"o":"m 356 494 q 317 402 356 440 q 225 364 279 364 q 133 402 171 364 q 94 494 94 440 q 133 587 94 549 q 225 625 171 625 q 317 587 279 625 q 356 494 356 549 z "},"…":{"ha":1164,"x_min":114,"x_max":1050,"o":"m 1050 74 q 1026 17 1050 40 q 969 -6 1003 -6 q 913 17 936 -6 q 889 74 889 40 q 913 131 889 107 q 969 154 936 154 q 1026 131 1003 154 q 1050 74 1050 107 m 661 74 q 638 17 661 40 q 582 -6 615 -6 q 525 17 549 -6 q 501 74 501 40 q 525 131 501 107 q 582 154 549 154 q 638 131 615 154 q 661 74 661 107 m 274 74 q 250 17 274 40 q 194 -6 226 -6 q 138 17 161 -6 q 114 74 114 40 q 138 131 114 107 q 194 154 161 154 q 250 131 226 154 q 274 74 274 107 z "},"‰":{"ha":1661,"x_min":96,"x_max":1567,"o":"m 1565 313 q 1378 -15 1567 -15 q 1190 313 1189 -15 q 1378 638 1192 638 q 1565 313 1564 638 m 1090 313 q 904 -15 1092 -15 q 717 313 715 -15 q 904 638 718 638 q 1090 313 1089 638 m 786 947 l 461 -11 l 397 8 l 722 965 l 786 947 m 469 644 q 283 318 469 318 q 96 644 96 318 q 283 971 96 971 q 469 644 469 971 m 1481 314 q 1378 583 1482 583 q 1274 314 1272 583 q 1378 47 1275 47 q 1481 314 1479 47 m 1007 314 q 904 583 1008 583 q 800 314 799 583 q 904 49 801 49 q 1007 314 1006 49 m 386 646 q 283 917 388 917 q 179 646 179 917 q 283 381 179 381 q 386 646 385 381 z "},"‹":{"ha":458,"x_min":83,"x_max":358,"o":"m 358 204 l 293 161 l 83 464 l 293 767 l 358 724 l 181 464 l 358 204 z "},"›":{"ha":458,"x_min":100,"x_max":375,"o":"m 375 464 l 165 161 l 100 204 l 276 464 l 100 724 l 165 767 l 375 464 z "},"⁄":{"ha":222,"x_min":-156,"x_max":378,"o":"m 378 944 l -83 -21 l -156 11 l 304 975 l 378 944 z "},"™":{"ha":1086,"x_min":64,"x_max":989,"o":"m 989 474 l 922 474 l 872 894 l 744 474 l 679 474 l 550 894 l 503 474 l 435 474 l 497 956 l 594 956 l 713 543 l 829 956 l 928 956 l 989 474 m 401 903 l 268 903 l 268 474 l 199 474 l 199 903 l 64 903 l 64 956 l 401 956 l 401 903 z "},"∂":{"ha":733,"x_min":69,"x_max":658,"o":"m 658 463 q 578 138 658 265 q 303 -12 483 -12 q 128 57 192 -12 q 69 225 69 121 q 165 470 69 368 q 408 572 260 572 q 535 553 469 572 q 431 772 519 679 q 254 883 354 851 l 289 964 q 532 814 432 924 q 658 463 658 674 m 543 486 q 429 504 483 504 q 250 428 315 504 q 185 238 185 353 q 317 71 185 71 q 489 193 429 71 q 543 486 543 304 z "},"∏":{"ha":1146,"x_min":82,"x_max":1064,"o":"m 1064 476 q 919 130 1064 274 q 572 -14 775 -14 q 226 130 369 -14 q 82 476 82 274 q 226 824 82 681 q 572 968 369 968 q 919 824 775 968 q 1064 476 1064 681 m 1004 476 q 878 781 1004 654 q 572 908 751 908 q 268 781 394 908 q 142 476 142 654 q 268 172 142 299 q 572 46 394 46 q 878 172 751 46 q 1004 476 1004 299 m 772 608 q 715 478 772 524 q 561 432 658 432 q 506 436 535 432 l 506 172 l 439 172 l 439 760 q 579 789 493 789 q 710 749 658 789 q 772 608 772 700 m 704 610 q 571 735 704 735 q 506 722 538 735 l 506 489 q 550 486 529 486 q 704 610 704 486 z "},"∑":{"ha":733,"x_min":75,"x_max":667,"o":"m 667 -299 l 75 -299 l 408 378 l 76 956 l 654 956 l 654 868 l 260 868 l 538 396 l 244 -197 l 667 -199 l 667 -299 z "},"­":{"ha":733,"x_min":100,"x_max":633,"o":"m 633 421 l 100 421 l 100 504 l 633 504 l 633 421 z "},"−":{"ha":733,"x_min":100,"x_max":633,"o":"m 633 421 l 100 421 l 100 504 l 633 504 l 633 421 z "},"·":{"ha":338,"x_min":88,"x_max":250,"o":"m 250 478 q 226 421 250 444 q 169 397 203 397 q 111 421 135 397 q 88 478 88 444 q 111 535 88 511 q 169 558 135 558 q 226 535 203 558 q 250 478 250 511 z "},"∙":{"ha":338,"x_min":88,"x_max":250,"o":"m 250 478 q 226 421 250 444 q 169 397 203 397 q 111 421 135 397 q 88 478 88 444 q 111 535 88 511 q 169 558 135 558 q 226 535 203 558 q 250 478 250 511 z "},"√":{"ha":733,"x_min":36,"x_max":693,"o":"m 693 1090 l 449 0 l 338 0 l 147 628 l 36 629 l 36 696 l 247 696 l 389 149 l 392 149 l 586 1090 l 693 1090 z "},"∞":{"ha":1188,"x_min":100,"x_max":1088,"o":"m 1088 471 q 1024 306 1088 372 q 861 239 960 239 q 719 279 781 239 q 592 408 663 315 q 467 279 519 314 q 328 239 408 239 q 164 305 228 239 q 100 471 100 371 q 164 637 100 571 q 328 703 228 703 q 465 663 404 703 q 594 535 518 628 q 717 663 674 632 q 860 703 775 703 q 1023 636 958 703 q 1088 471 1088 569 m 1008 472 q 965 578 1008 535 q 860 621 922 621 q 757 591 799 621 q 647 474 715 561 q 751 361 711 392 q 860 324 801 324 q 966 366 924 324 q 1008 472 1008 408 m 542 469 q 432 582 471 553 q 328 618 383 618 q 221 576 264 618 q 178 469 178 533 q 222 365 178 408 q 328 321 265 321 q 435 356 388 321 q 542 469 478 386 z "},"∫":{"ha":733,"x_min":172,"x_max":589,"o":"m 589 1010 q 488 979 526 1011 q 442 868 442 943 l 442 -61 q 369 -238 442 -172 q 172 -299 296 -304 l 172 -218 q 275 -187 235 -219 q 322 -78 322 -151 l 322 851 q 394 1029 322 964 q 589 1089 467 1094 l 589 1010 z "},"≈":{"ha":733,"x_min":100,"x_max":633,"o":"m 633 567 q 483 497 579 497 q 363 543 439 497 q 240 589 288 589 q 100 528 158 589 l 100 610 q 240 671 156 671 q 364 626 288 671 q 482 581 440 581 q 633 649 574 581 l 633 567 m 633 315 q 483 247 581 247 q 363 292 439 247 q 240 338 288 338 q 100 276 158 338 l 100 358 q 240 421 157 421 q 364 375 288 421 q 482 329 440 329 q 633 397 571 329 l 633 315 z "},"⋲":{"ha":733,"x_min":100,"x_max":633,"o":"m 633 567 q 483 497 579 497 q 363 543 439 497 q 240 589 288 589 q 100 528 158 589 l 100 610 q 240 671 156 671 q 364 626 288 671 q 482 581 440 581 q 633 649 574 581 l 633 567 m 633 315 q 483 247 581 247 q 363 292 439 247 q 240 338 288 338 q 100 276 158 338 l 100 358 q 240 421 157 421 q 364 375 288 421 q 482 329 440 329 q 633 397 571 329 l 633 315 z "},"≠":{"ha":733,"x_min":100,"x_max":633,"o":"m 633 303 l 308 303 l 211 143 l 157 176 l 235 303 l 100 303 l 100 383 l 282 383 l 379 543 l 100 543 l 100 622 l 426 622 l 518 775 l 574 743 l 500 622 l 633 622 l 633 543 l 454 543 l 356 383 l 633 383 l 633 303 z "},"≤":{"ha":733,"x_min":100,"x_max":633,"o":"m 633 315 l 100 519 l 100 593 l 633 797 l 633 713 l 200 556 l 633 399 l 633 315 m 633 146 l 100 146 l 100 224 l 633 224 l 633 146 z "},"≥":{"ha":733,"x_min":100,"x_max":633,"o":"m 633 519 l 100 315 l 100 399 l 533 556 l 100 713 l 100 797 l 633 593 l 633 519 m 633 146 l 100 146 l 100 224 l 633 222 l 633 146 z "},"◊":{"ha":890,"x_min":69,"x_max":821,"o":"m 821 478 l 444 6 l 69 478 l 444 950 l 821 478 m 714 465 l 436 817 l 178 489 l 456 139 l 714 465 z "},"":{"ha":732,"x_min":56,"x_max":633,"o":"m 633 960 q 613 913 633 932 q 564 894 593 894 q 514 914 535 894 q 493 960 493 933 q 514 1006 493 986 q 564 1025 535 1025 q 613 1006 593 1025 q 633 960 633 988 m 625 0 l 503 0 l 503 749 l 625 749 l 625 0 m 393 672 l 263 672 l 263 0 l 140 0 l 140 672 l 56 672 l 56 749 l 140 749 l 140 854 q 206 1031 140 967 q 393 1090 272 1096 l 393 1013 q 263 868 263 1006 l 263 749 l 393 749 l 393 672 z "},"":{"ha":740,"x_min":56,"x_max":633,"o":"m 633 0 l 511 0 l 511 1090 l 633 1090 l 633 0 m 393 672 l 263 672 l 263 0 l 140 0 l 140 672 l 56 672 l 56 749 l 140 749 l 140 854 q 206 1031 140 967 q 393 1090 272 1096 l 393 1013 q 263 868 263 1006 l 263 749 l 393 749 l 393 672 z "}," ":{"ha":383,"x_min":0,"x_max":0,"o":""}}}
